<svg id="Capa_1" enable-background="new 0 0 512 512" height="512" viewBox="0 0 512 512" width="512" xmlns="http://www.w3.org/2000/svg"><g><g><g><path d="m421 312h-320.805c-6.456 0-12.188-4.132-14.23-10.257-17.468-52.402-16.039-107.859 4.13-160.374 15.209-39.599 35.667-63.648 36.53-64.652 4.229-4.919 11.141-6.565 17.131-4.073 5.989 2.488 9.701 8.546 9.199 15.013-.015.201-1.616 23.474 5.794 48.837 6.137 21.01 16.427 37.066 30.72 48.008-5.968-43.186.45-82.216 19.001-114.2 18.796-32.406 49.687-57.1 86.982-69.531 5.446-1.813 11.447-.363 15.462 3.737s5.338 10.134 3.407 15.538c-.335.944-31.344 90.233 6.724 136.61 17.884-19.006 17.512-46.18 14.075-73.144-.711-5.58 1.76-11.09 6.4-14.27 4.64-3.181 10.671-3.497 15.618-.819 33.367 18.056 63.049 53.074 79.4 93.676 18.986 47.145 18.307 97.282-1.915 141.178-2.449 5.317-7.769 8.723-13.623 8.723z" fill="#f17ab4"/></g></g><g><path d="m436.539 162.099c-16.352-40.602-46.033-75.62-79.4-93.676-4.947-2.678-10.979-2.361-15.618.819-4.641 3.18-7.111 8.689-6.4 14.27 3.437 26.964 3.809 54.138-14.075 73.144-38.067-46.377-7.059-135.666-6.724-136.61 1.931-5.404.607-11.438-3.407-15.538s-10.016-5.551-15.462-3.737c-14.183 4.726-27.436 11.231-39.453 19.254v291.975h165c5.854 0 11.174-3.406 13.624-8.724 20.222-43.895 20.901-94.033 1.915-141.177z" fill="#ff3c7d"/></g><g><g><path d="m45 297h422c16.569 0 30 13.431 30 30v140c0 16.569-13.431 30-30 30h-422c-16.569 0-30-13.431-30-30v-140c0-16.569 13.431-30 30-30z" fill="#ffe278"/><path d="m467 297h-211v200h211c16.569 0 30-13.431 30-30v-140c0-16.569-13.431-30-30-30z" fill="#ffcd00"/><g><path d="m467 512h-422c-24.813 0-45-20.187-45-45v-140c0-24.813 20.187-45 45-45h422c24.813 0 45 20.187 45 45v140c0 24.813-20.187 45-45 45zm-422-200c-8.271 0-15 6.729-15 15v140c0 8.271 6.729 15 15 15h422c8.271 0 15-6.729 15-15v-140c0-8.271-6.729-15-15-15z" fill="#fff48b"/></g><path d="m467 282h-211v30h211c8.271 0 15 6.729 15 15v140c0 8.271-6.729 15-15 15h-211v30h211c24.813 0 45-20.187 45-45v-140c0-24.814-20.187-45-45-45z" fill="#ffe278"/><g><g><path d="m333.213 343.991c-.044-.116-.09-.231-.137-.346-2.288-5.558-7.646-9.146-13.655-9.146-.006 0-.014 0-.02 0-6.016.008-11.374 3.611-13.649 9.18-.038.093-.074.186-.11.279l-37.549 98.592c-2.457 6.452.781 13.674 7.232 16.131 6.451 2.456 13.674-.781 16.131-7.232l6.285-16.504h43.074l6.215 16.468c1.89 5.006 6.646 8.091 11.697 8.09 1.467 0 2.958-.26 4.411-.808 6.459-2.438 9.72-9.649 7.282-16.108zm-25.951 65.954 12.115-31.81 12.004 31.81z" fill="#525263"/><path d="m436.002 434.416c-.024 0-.048 0-.071 0-7.707.043-15.963.074-22.447.083v-87.499c0-6.903-5.597-12.5-12.5-12.5s-12.5 5.597-12.5 12.5v99.916c0 6.088 4.387 11.291 10.387 12.32.891.152 1.575.271 12.721.271 5.353 0 13.119-.027 24.479-.091 6.904-.039 12.469-5.666 12.431-12.57-.041-6.879-5.629-12.43-12.5-12.43z" fill="#525263"/><g fill="#5e6b75"><path d="m250.709 423.306c-5.291-4.437-13.175-3.742-17.609 1.549-.873 1.041-1.812 2.01-2.792 2.883-5.038 4.487-11.474 6.763-19.128 6.763-20.677 0-37.499-16.822-37.499-37.5s16.822-37.5 37.499-37.5c7.517 0 14.764 2.212 20.957 6.396 5.721 3.864 13.491 2.36 17.355-3.359 3.865-5.72 2.361-13.49-3.359-17.355-10.342-6.988-22.429-10.682-34.953-10.682-34.462 0-62.499 28.037-62.499 62.5s28.037 62.5 62.499 62.5c13.773 0 26.138-4.527 35.753-13.091 1.883-1.677 3.675-3.524 5.325-5.494 4.435-5.291 3.742-13.175-1.549-17.61z"/><path d="m97.432 394.985 40.82-37.521c5.083-4.672 5.416-12.58.744-17.662-4.672-5.084-12.58-5.415-17.662-.744l-32.834 30.181v-22.239c0-6.903-5.597-12.5-12.5-12.5s-12.5 5.597-12.5 12.5v100c0 6.903 5.597 12.5 12.5 12.5s12.5-5.597 12.5-12.5v-25.893l36.164 34.889c2.426 2.34 5.553 3.504 8.678 3.504 3.273 0 6.544-1.278 8.997-3.821 4.793-4.968 4.651-12.882-.317-17.675z"/></g></g></g></g></g></g></svg>