<svg id="Capa_1" enable-background="new 0 0 497.268 497.268" height="512" viewBox="0 0 497.268 497.268" width="512" xmlns="http://www.w3.org/2000/svg"><g><path d="m495.258 241.134-116.817-202.333c-2.679-4.641-7.631-7.5-12.99-7.5h-233.833c-.004.003-.008.005-.012.007l-123.926 204.326 125.477 217.333 252.294-7c.099-.057.212-.122.311-.179l109.496-189.653c2.679-4.642 2.679-10.36 0-15.001z" fill="#fff0af"/><path d="m151.817 445.967c-5.359 0-10.311-2.859-12.99-7.5l-116.817-202.333c-2.68-4.641-2.68-10.359 0-15l109.596-189.826c-5.277.074-10.135 2.913-12.779 7.493l-116.817 202.333c-2.68 4.641-2.68 10.359 0 15l116.817 202.333c2.68 4.641 7.631 7.5 12.99 7.5h233.634c5.359 0 10.311-2.859 12.99-7.5l7.221-12.507c-.071.001-.141.007-.211.007z" fill="#ffe07d"/><path d="m158.817 93.647 67.111 38.747v77.493l-57.111-38.746z" fill="#f2d1a5"/><path d="m158.817 93.647 13.316 48.529c5.177 18.867 15.945 35.723 30.888 48.351l22.908 19.36-67.111-38.747z" fill="#d8ab8c"/><path d="m370.782 305.795-44.741-77.493-33.695-27.737c7.264-12.581-3.782-37.175-11.046-49.756l-33.002-57.162-29.741 51.512-3.262 46.312c-7.264-12.581-20.688-20.332-45.216-20.332h-36.004l122.485 212.149c7.264 12.581 30.688 20.332 45.216 20.332h36.004l3.517-18.789 11.483-7.192 18.002-31.181c7.264-12.581 7.264-28.081 0-40.663z" fill="#d8ab8c"/><path d="m308.039 300.146-28.069-24.451-16.672-53.042-44.741-77.493-3.261 5.649c-7.264 12.581-7.264 28.082 0 40.664l44.741 77.493 13.348 12.553s14.544 35.757 31.392 64.939 33.003 57.163 33.003 57.163l15-25.981z" fill="#c38778"/><path d="m266.56 383.288-33.002-57.161-41.977-57.511-2.764-19.982-44.741-77.493h-30l33.006 57.168c5.799 10.04 22.615 38.24 36.552 49.21l8.188 28.284 44.737 77.486c7.264 12.581 20.688 20.332 35.216 20.332h30c-14.527-.001-27.951-7.751-35.215-20.333z" fill="#c38778"/><path d="m326.041 228.302-44.741-77.493c7.264 12.581 7.263 28.082 0 40.663l-18.002 31.181-3.261 46.313c-7.264-12.581-20.688-20.332-35.216-20.332h-36.004l14.781 42.922 29.96 34.572h36.004c14.528 0 27.952 7.75 35.216 20.332-4.044-7.638-5.342-9.416-6.49-13.726-4.545-17.07 9.751-32.587 9.751-32.587l18.002-31.181c7.264-12.582 7.264-28.082 0-40.664z" fill="#f2d1a5"/><g fill="#d8ab8c"><path d="m260.037 228.302c-7.264 12.581-7.264 28.082 0 40.664l44.74 77.492c-7.263-12.581-7.263-28.081.001-40.662l3.261-5.649-44.741-77.493z"/><path d="m227.035 326.127h6.523l-44.741-77.493h-6.523c-14.525 0-27.947-7.748-35.212-20.325l44.741 77.494c7.265 12.577 20.687 20.324 35.212 20.324z"/></g></g></svg>