<svg height="512" viewBox="0 0 60 60" width="512" xmlns="http://www.w3.org/2000/svg"><g id="014---Healthy-Living" fill="none"><g id="Icons"><path id="Shape" d="m28.77 39.36c0 .41-1.77 2.94-1.77 13.64-3.9245815.9921701-8.0427688.9196789-11.93-.21-11.87-3.69-16.96-18.26-12.45-28.79 2.9429414 2.1373725 6.3423728 3.5615049 9.93 4.16 4.75.76 8.65 1.64 12 4.77 1.865562 1.8043085 3.3069558 4.0005554 4.22 6.43z" fill="#007900"/><path id="Shape" d="m25.77 39.36c0 .41-1.77 2.94-1.77 13.64-1.3579731.3372626-2.7435767.5514622-4.14.64-1.6252034-.0882556-3.2336597-.373681-4.79-.85-11.51-3.58-16.46-18.63-13.07-28.79 2.25 1.28 4.63 3.68 7.55 4.16 4.75.76 8.65 1.64 12 4.77 1.865562 1.8043085 3.3069558 4.0005554 4.22 6.43z" fill="#008a00"/><path id="Shape" d="m31 59c-.506828.0011305-1.0056809-.126163-1.45-.37-1.41-.74-2.55-2.63-2.55-5.63 0-11.07 1.77-13 1.77-13.64.7102433-1.8736276 1.8349549-3.5624044 3.29-4.94 3.85-3.66 8.31-4.68 13.74-5.57 4.1133066-.6974859 8.0028544-2.3595394 11.35-4.85 5.05 12-.41 29.2-14.23 33.59-3.8399039 1.2585903-7.8924256 1.7379573-11.92 1.41z" fill="#60a917"/><path id="Shape" d="m42.92 57.59c-3.5043498 1.1451781-7.1870465 1.6465941-10.87 1.48 2.6886227-.1570245 5.3464854-.6543237 7.91-1.48 13.24-4.2 18.8-20.16 14.81-32 .81-.47 1.61-1 2.42-1.55 5.01 11.96-.45 29.16-14.27 33.55z" fill="#549414"/><path id="Shape" d="m43.38 16.47-12.67 12.81c-.2300948.2312971-.558554.3358068-.88.28-.42-.06.64.89-13.2-13.09-2.5789399-2.5896321-3.3516597-6.47411994-1.9601181-9.85357804s4.6754495-5.59356986 8.3301181-5.61642196c2.3803065-.00283159 4.6616367.95222766 6.33 2.65l.71.7.71-.7c1.5413235-1.57867328 3.617277-2.52390982 5.82-2.65 8.18-.42 12.57 9.61 6.81 15.47z" fill="#ef314c"/><path id="Shape" d="m43.38 16.47-12.67 12.81c-.2300948.2312971-.558554.3358068-.88.28-.2 0-.07.17-1.33-1.08l11.88-12c2.3626401-2.4084645 3.2044851-5.9235627 2.1892186-9.14101562-1.0152666-3.21745295-3.7221369-5.6127548-7.0392186-6.22898438.3295503-.06400496.6643012-.09748006 1-.1 8.22-.43 12.61 9.6 6.85 15.46z" fill="#bb193b"/></g><g id="Layer_2" fill="#000" transform="translate(-1 -1)"><path id="Shape" d="m57.59 24.18c-3.2275257 2.4011682-6.9754937 4.0079296-10.94 4.69-5.37.87-10.15 1.91-14.29 5.83-1.0114304.9677102-1.8741057 2.0797527-2.56 3.3-.9129165-1.7803743-2.1122329-3.3986068-3.55-4.79-3.63-3.37-7.83-4.27-12.54-5-3.4446301-.5736504-6.70784223-1.9433092-9.53-4-.246518-.1675782-.55494293-.2164455-.84118928-.1332794-.28624634.0831662-.52046848.2896945-.63881072.5632794-5.41 12.55 2.3 31.05 19.62 31.05 2.0239525.0094228 4.0406425-.2426634 6-.75.2599257-.0731146.4752427-.2555867.59-.5.0610828-.1385549.0917715-.2885886.09-.44 0-11.08 1.82-15 4.75-17.85 3.71-3.53 8.18-4.49 13.22-5.31 3.8363682-.6460262 7.4869606-2.1164985 10.7-4.31 4.7 13.34-2.91 33.69-24.67 32.47 3.4671947-6.8539722 8.6310791-12.7063745 15-17 .3140985-.1949429.4950264-.5472678.4704546-.9161266s-.2506345-.6940717-.5878153-.8456291c-.3371809-.1515574-.7304686-.1047325-1.0226393.1217557-12.26 8.4-16.11 18.7-16.27 19.13-.1067039.2904143-.0729708.6138651.0913606.8760128.1643314.2621476.440752.433466.7486394.4639872 4.305997.4560993 8.6597883.0203798 12.79-1.28 14.14-4.5 20.24-22.13 14.85-34.94-.1183422-.2735849-.3525644-.4801132-.6388107-.5632794-.2862464-.0831661-.5946713-.0342988-.8411893.1332794zm-41.22 28.65c-10.8-3.35-15.79-16.35-12.27-26.32 2.80128405 1.8626577 5.9689764 3.1038203 9.29 3.64 4.54.72 8.28 1.52 11.49 4.51 1.6675902 1.6194482 2.9699857 3.5764508 3.82 5.74-1.0792593 3.3477129-1.632508 6.8426251-1.64 10.36-3.7379916-4.9863009-8.2962224-9.3010654-13.48-12.76-.4583963-.3092794-1.0807205-.1883963-1.39.27-.3092794.4583963-.1883963 1.0807205.27 1.39 5.465808 3.6343803 10.1954787 8.2690504 13.94 13.66-3.3351137.6310658-6.7722806.4631484-10.03-.49z"/><path id="Shape" d="m31 4c-1.8301435-1.90762074-4.3564515-2.9903242-7-3-8.54-.14-13.47 10.68-7 17.16l13.29 13.54c.1877666.1893127.4433625.2957983.71.2957983s.5222334-.1064856.71-.2957983l13.38-13.53c6.24-6.31 1.79-17.17-7.09-17.17-2.6414181.01990943-5.1639152 1.10097964-7 3zm15 7.11c.0083495 2.1334945-.8295391 4.1832648-2.33 5.7l-12.67 12.77-12.66-12.82c-3.1212479-3.1590665-3.1212479-8.24093347 0-11.4 1.4832352-1.50796209 3.5098318-2.35723622 5.625-2.35723622s4.1417648.84927413 5.625 2.35723622l.7.7c.1877666.18931265.4433625.29579832.71.29579832s.5222334-.10648567.71-.29579832l.71-.71c2.3016215-2.2403475 5.7199847-2.88692553 8.680846-1.64196836 2.9608614 1.24495716 4.8900614 4.14003194 4.899154 7.35196836z"/><path id="Shape" d="m19.76 6.77c-2.1036491 2.14943014-2.3407018 5.5062651-.56 7.93.3431665.3937493.9315578.4570804 1.3506552.1453767.4190973-.3117037.5277204-.8934392.2493448-1.3353767-1.194584-1.6303089-1.0337902-3.88565399.38-5.33.2518722-.25365857.3492866-.622421.2555479-.96737804-.0937386-.34495705-.3643891-.61370154-.71-.70500001-.3456109-.09129848-.7136757.00871947-.9655479.26237805z"/><path id="Shape" d="m25.21 5.14c-.3983159-.08287629-.8032831-.129732-1.21-.14-.5522847 0-1 .44771525-1 1s.4477153 1 1 1c.2692071-.00025923.5375797.02993269.8.09.5522847.1159798 1.0940202-.23771525 1.21-.79s-.2377153-1.0940202-.79-1.21z"/></g></g></svg>