<svg id="Capa_1" enable-background="new 0 0 58 58" height="512" viewBox="0 0 58 58" width="512" xmlns="http://www.w3.org/2000/svg"><g transform="translate(-1)"><path id="Shape" d="m27 32v-25c0-.6-.4-1-1-1-12.5.5-22.9 9.8-24.7 22.2s5.4 24.3 17.3 28.4c6.2 2.1 12.9 1.8 18.9-.8l15.5-23.3c.1-2.9-.4-5.8-1.3-8.6-.1-.3-.3-.5-.5-.6s-.5-.1-.8 0z" fill="#f3d55b"/><path d="m27 32-8.4 24.6c-12.7-4.3-20-17.5-16.9-30.6z" fill="#e64c3c"/><path d="m27 7v25l-25.3-6c2.7-11.3 12.6-19.5 24.3-20 .6 0 1 .4 1 1z" fill="#f29c1f"/><path d="m54.4 17.3-22.1 8.2c-.3.1-.7.1-.9-.1s-.4-.5-.4-.8v-23.6c0-.6.4-1 1-1 10.1.4 19.1 6.6 23 16 .1.3.1.5 0 .8-.1.2-.3.4-.6.5z" fill="#955ba5"/><circle id="Oval" cx="45" cy="44" fill="#4fba6f" r="14"/><g fill="#fff"><path d="m39 51c-.3 0-.5-.1-.7-.3s-.3-.4-.3-.7.1-.5.3-.7l12-12c.3-.3.6-.4 1-.3.3.1.6.4.7.7s0 .7-.3 1l-12 12c-.2.2-.4.3-.7.3z"/><circle cx="40" cy="39" r="2"/><circle cx="50" cy="49" r="2"/></g></g></svg>