<?xml version="1.0" encoding="iso-8859-1"?>
<!-- Generator: Adobe Illustrator 19.0.0, SVG Export Plug-In . SVG Version: 6.00 Build 0)  -->
<svg version="1.1" id="Capa_1" xmlns="http://www.w3.org/2000/svg" xmlns:xlink="http://www.w3.org/1999/xlink" x="0px" y="0px"
	 viewBox="0 0 208.215 208.215" style="enable-background:new 0 0 208.215 208.215;" xml:space="preserve">
<path style="fill:#777777;" d="M153.02,204.802H55.194c-18.229,0-33.007-14.778-33.007-33.007V68.869
	c0-13.527,10.967-24.494,24.494-24.494h114.852c13.527,0,24.494,10.967,24.494,24.494v102.926
	C186.027,190.024,171.249,204.802,153.02,204.802z"/>
<path d="M153.02,208.215H55.194c-20.082,0-36.42-16.338-36.42-36.42V68.867c0-15.389,12.518-27.907,27.907-27.907h114.852
	c15.389,0,27.909,12.518,27.909,27.907v102.927C189.44,191.877,173.102,208.215,153.02,208.215z M46.681,47.788
	c-11.624,0-21.081,9.457-21.081,21.081v102.927c0,16.319,13.274,29.594,29.594,29.594h97.826c16.319,0,29.594-13.274,29.594-29.594
	V68.869c0-11.624-9.457-21.081-21.082-21.081L46.681,47.788L46.681,47.788z"/>
<rect x="66.56" y="30.722" style="fill:#777777;" width="75.093" height="13.653"/>
<path d="M141.653,47.788H66.56c-1.884,0-3.413-1.529-3.413-3.413V30.722c0-1.884,1.529-3.413,3.413-3.413h75.093
	c1.884,0,3.413,1.529,3.413,3.413v13.653C145.067,46.259,143.538,47.788,141.653,47.788z M69.973,40.962h68.267v-6.827H69.973
	V40.962z"/>
<path style="fill:#EE5281;" d="M160.261,30.722H47.951c-2.918,0-5.286-2.365-5.286-5.286V8.699c0-2.918,2.365-5.286,5.286-5.286
	h112.311c2.918,0,5.286,2.365,5.286,5.286v16.737C165.547,28.355,163.181,30.722,160.261,30.722z"/>
<path d="M160.261,34.135H47.951c-4.797,0-8.699-3.901-8.699-8.699V8.699C39.252,3.901,43.153,0,47.951,0h112.311
	c4.797,0,8.699,3.901,8.699,8.699v16.737C168.96,30.234,165.059,34.135,160.261,34.135z M47.952,6.828
	c-1.031,0-1.872,0.84-1.872,1.872v16.737c0,1.031,0.84,1.872,1.872,1.872h112.311c1.031,0,1.872-0.84,1.872-1.872V8.701
	c0-1.031-0.84-1.872-1.872-1.872H47.952z"/>
<rect x="22.187" y="75.095" style="fill:#EE5281;" width="163.84" height="95.573"/>
<path d="M186.027,174.082H22.187c-1.884,0-3.413-1.529-3.413-3.413V75.095c0-1.884,1.529-3.413,3.413-3.413h163.84
	c1.884,0,3.413,1.529,3.413,3.413v95.573C189.44,172.553,187.911,174.082,186.027,174.082z M25.6,167.255h157.013V78.508H25.6
	V167.255z"/>
<path d="M34.526,112.867c1.056-0.2,2.22-0.357,3.49-0.469c1.27-0.113,2.533-0.171,3.794-0.171c1.307,0,2.62,0.106,3.941,0.321
	c1.323,0.213,2.511,0.64,3.567,1.283c1.056,0.64,1.917,1.533,2.584,2.676c0.667,1.147,1,2.637,1,4.473
	c0,1.661-0.287,3.06-0.867,4.207c-0.58,1.143-1.347,2.08-2.301,2.809c-0.957,0.73-2.046,1.256-3.263,1.584
	c-1.224,0.326-2.487,0.49-3.794,0.49c-0.126,0-0.326,0-0.604,0c-0.278,0-0.567-0.003-0.867-0.017
	c-0.304-0.014-0.601-0.034-0.887-0.056c-0.29-0.027-0.5-0.049-0.623-0.077v9.093h-5.169L34.526,112.867L34.526,112.867z
	 M42.223,116.678c-0.503,0-0.98,0.02-1.434,0.056c-0.454,0.039-0.817,0.084-1.094,0.133v8.564c0.101,0.027,0.249,0.049,0.454,0.077
	c0.2,0.024,0.413,0.043,0.64,0.056c0.227,0.014,0.447,0.017,0.66,0.017s0.37,0,0.473,0c0.676,0,1.35-0.06,2.017-0.186
	s1.263-0.36,1.794-0.7c0.527-0.336,0.951-0.811,1.263-1.413c0.312-0.602,0.469-1.396,0.469-2.377c0-0.829-0.15-1.517-0.451-2.057
	c-0.304-0.539-0.7-0.973-1.19-1.3c-0.49-0.328-1.05-0.553-1.679-0.679C43.52,116.741,42.877,116.678,42.223,116.678z"/>
<path d="M56.107,112.867c0.58-0.101,1.2-0.193,1.867-0.283c0.667-0.087,1.333-0.157,2-0.207c0.667-0.049,1.316-0.087,1.944-0.113
	c0.63-0.024,1.207-0.036,1.737-0.036c1.234,0,2.447,0.113,3.64,0.336c1.193,0.227,2.263,0.616,3.207,1.171s1.7,1.316,2.263,2.284
	c0.567,0.969,0.85,2.183,0.85,3.64c0,2.164-0.503,3.927-1.51,5.284c-1.007,1.36-2.35,2.304-4.036,2.83l1.85,1.171l6.036,10.073
	h-5.963l-5.997-10.337l-2.717-0.493v10.83h-5.169v-26.15H56.107z M64.031,116.832c-0.527,0-1.05,0.01-1.567,0.036
	c-0.514,0.024-0.91,0.073-1.186,0.15v7.66h2.186c1.434,0,2.58-0.326,3.434-0.98c0.857-0.657,1.283-1.737,1.283-3.246
	c0-1.13-0.353-2.017-1.056-2.661C66.42,117.151,65.389,116.832,64.031,116.832z"/>
<path d="M76.747,125.807c0-4.4,0.969-7.789,2.906-10.167c1.937-2.377,4.704-3.567,8.3-3.567c1.886,0,3.533,0.329,4.943,0.983
	c1.406,0.654,2.577,1.584,3.507,2.79c0.93,1.207,1.623,2.654,2.077,4.34c0.454,1.686,0.679,3.56,0.679,5.62
	c0,4.403-0.976,7.793-2.927,10.17c-1.951,2.377-4.71,3.564-8.281,3.564c-1.913,0-3.574-0.326-4.98-0.98
	c-1.41-0.654-2.574-1.584-3.49-2.79c-0.92-1.21-1.603-2.654-2.057-4.34C76.971,129.744,76.747,127.87,76.747,125.807z
	 M82.179,125.807c0,1.333,0.113,2.56,0.34,3.68s0.57,2.08,1.036,2.886c0.466,0.804,1.063,1.434,1.794,1.886
	c0.73,0.452,1.597,0.679,2.603,0.679c1.836,0,3.256-0.717,4.263-2.154c1.007-1.434,1.51-3.76,1.51-6.98
	c0-1.28-0.109-2.476-0.323-3.584s-0.546-2.074-1-2.903c-0.451-0.829-1.043-1.48-1.773-1.944c-0.727-0.466-1.62-0.7-2.676-0.7
	c-1.836,0-3.256,0.737-4.263,2.207C82.683,120.358,82.179,122.665,82.179,125.807z"/>
<path d="M120.137,117.207h-7.697v21.806h-5.17v-21.806h-7.733v-4.603h20.599V117.207z"/>
<path d="M122.813,112.604h15.657v4.603h-10.487v6.151h9.544v4.603h-9.544v6.45h10.677v4.603h-15.846L122.813,112.604
	L122.813,112.604z"/>
<path d="M143.037,112.604h5.166v26.411h-5.166V112.604z"/>
<path d="M159.826,125.244l-2.077-4.151h-0.189l0.606,4.151v13.769h-4.907v-26.6h3.773l9.999,14.073l1.997,4.036h0.189l-0.604-4.036
	v-13.884h4.903v26.6h-3.773L159.826,125.244z"/>
<path d="M66.56,20.482c-1.884,0-3.413-1.529-3.413-3.413V3.415c0-1.884,1.529-3.413,3.413-3.413c1.884,0,3.413,1.529,3.413,3.413
	v13.653C69.973,18.953,68.444,20.482,66.56,20.482z"/>
<path d="M90.453,20.482c-1.884,0-3.413-1.529-3.413-3.413V3.415c0-1.884,1.529-3.413,3.413-3.413c1.884,0,3.413,1.529,3.413,3.413
	v13.653C93.867,18.953,92.338,20.482,90.453,20.482z"/>
<path d="M141.653,20.482c-1.884,0-3.413-1.529-3.413-3.413V3.415c0-1.884,1.529-3.413,3.413-3.413c1.884,0,3.413,1.529,3.413,3.413
	v13.653C145.067,18.953,143.538,20.482,141.653,20.482z"/>
<path d="M117.76,20.482c-1.884,0-3.413-1.529-3.413-3.413V3.415c0-1.884,1.529-3.413,3.413-3.413c1.884,0,3.413,1.529,3.413,3.413
	v13.653C121.173,18.953,119.644,20.482,117.76,20.482z"/>
<g>
</g>
<g>
</g>
<g>
</g>
<g>
</g>
<g>
</g>
<g>
</g>
<g>
</g>
<g>
</g>
<g>
</g>
<g>
</g>
<g>
</g>
<g>
</g>
<g>
</g>
<g>
</g>
<g>
</g>
</svg>
