<svg id="Layer_1" enable-background="new 0 0 256 256" height="512" viewBox="0 0 256 256" width="512" xmlns="http://www.w3.org/2000/svg"><g><circle cx="128" cy="81.717" r="60.162"/><path d="m227.449 72.044c-8.775-9.219-20.907-14.476-33.621-14.6-9.899-26.76-35.67-45.888-65.828-45.888s-55.929 19.128-65.828 45.888c-12.714.125-24.846 5.381-33.621 14.6-11.035 11.593-15.42 28-11.64 43.552l22.485 92.515c3.617 14.883 16.945 25.36 32.261 25.36h56.343 56.343c15.316 0 28.644-10.477 32.261-25.36l22.485-92.515c3.78-15.552-.605-31.959-11.64-43.552z" fill="#cecece"/><path d="m54.062 208.112-22.485-92.515c-3.78-15.553.605-31.959 11.64-43.553 8.775-9.219 20.907-14.476 33.621-14.6 9.086-24.562 31.547-42.681 58.495-45.495-2.412-.252-4.856-.394-7.333-.394-30.158 0-55.929 19.128-65.828 45.888-12.714.125-24.846 5.381-33.621 14.6-11.035 11.593-15.42 28-11.64 43.553l22.485 92.515c3.617 14.883 16.945 25.36 32.261 25.36h14.667c-15.316 0-28.645-10.477-32.262-25.359z" fill="#afafaf"/><path d="m201.938 208.112 22.485-92.515c3.78-15.553-.605-31.959-11.64-43.553-8.775-9.219-20.907-14.476-33.621-14.6-9.086-24.562-31.547-42.681-58.495-45.495 2.412-.252 4.856-.394 7.333-.394 30.158 0 55.929 19.128 65.828 45.888 12.714.125 24.846 5.381 33.621 14.6 11.035 11.593 15.42 28 11.64 43.553l-22.485 92.515c-3.617 14.883-16.945 25.36-32.261 25.36h-14.667c15.316 0 28.645-10.477 32.262-25.359z" fill="#e2e2e2"/><circle cx="128" cy="81.717" fill="#63bce7" r="60.162"/><g><path d="m111.359 103.357c-1.279 0-2.56-.488-3.535-1.465-1.953-1.952-1.953-5.118 0-7.07l16.641-16.641c1.951-1.953 5.119-1.953 7.07 0 1.953 1.952 1.953 5.118 0 7.07l-16.641 16.641c-.975.977-2.255 1.465-3.535 1.465z" fill="#f46275"/></g><path d="m142.579 195.425v-40.11h-29.158v40.11h-10.537l25.116 25.116 25.116-25.116z" fill="#f46275"/><g fill="#3f3679"><path d="m128 20.056c-34 0-61.661 27.661-61.661 61.661 0 34.001 27.661 61.662 61.661 61.662s61.661-27.661 61.661-61.662c0-34-27.661-61.661-61.661-61.661zm0 120.323c-32.346 0-58.661-26.315-58.661-58.662 0-32.346 26.315-58.661 58.661-58.661s58.661 26.315 58.661 58.661-26.315 58.662-58.661 58.662z"/><path d="m128 45.551c.828 0 1.5-.672 1.5-1.5v-12c0-.828-.672-1.5-1.5-1.5s-1.5.672-1.5 1.5v12c0 .828.672 1.5 1.5 1.5z"/><path d="m128 117.884c-.828 0-1.5.672-1.5 1.5v12c0 .828.672 1.5 1.5 1.5s1.5-.672 1.5-1.5v-12c0-.828-.672-1.5-1.5-1.5z"/><path d="m154.635 56.583c.384 0 .768-.146 1.061-.439l8.485-8.485c.586-.586.586-1.535 0-2.121s-1.535-.586-2.121 0l-8.485 8.485c-.586.586-.586 1.535 0 2.121.292.293.676.439 1.06.439z"/><path d="m100.305 107.291-8.485 8.485c-.586.586-.586 1.535 0 2.121.293.293.677.439 1.061.439s.768-.146 1.061-.439l8.485-8.485c.586-.586.586-1.535 0-2.121s-1.536-.586-2.122 0z"/><path d="m177.667 80.217h-12c-.828 0-1.5.672-1.5 1.5s.672 1.5 1.5 1.5h12c.828 0 1.5-.672 1.5-1.5s-.672-1.5-1.5-1.5z"/><path d="m91.833 81.717c0-.828-.672-1.5-1.5-1.5h-12c-.828 0-1.5.672-1.5 1.5s.672 1.5 1.5 1.5h12c.828 0 1.5-.672 1.5-1.5z"/><path d="m155.695 107.291c-.586-.586-1.535-.586-2.121 0s-.586 1.535 0 2.121l8.485 8.485c.293.293.677.439 1.061.439s.768-.146 1.061-.439c.586-.586.586-1.535 0-2.121z"/><path d="m93.94 45.537c-.586-.586-1.535-.586-2.121 0s-.586 1.535 0 2.121l8.485 8.485c.293.293.677.439 1.061.439s.768-.146 1.061-.439c.586-.586.586-1.535 0-2.121z"/><path d="m128 75.217c-1.737 0-3.369.677-4.596 1.904l-16.641 16.641c-1.228 1.228-1.904 2.859-1.904 4.596s.677 3.368 1.903 4.596c1.228 1.228 2.859 1.904 4.597 1.904s3.369-.677 4.596-1.904l16.641-16.641c1.228-1.228 1.904-2.859 1.904-4.596s-.677-3.368-1.903-4.596c-1.228-1.227-2.86-1.904-4.597-1.904zm2.475 8.974-16.642 16.641c-1.319 1.322-3.625 1.323-4.948 0-.661-.661-1.025-1.54-1.025-2.475s.364-1.813 1.025-2.475l16.642-16.641c.66-.661 1.538-1.025 2.474-1.025.935 0 1.813.364 2.475 1.025s1.025 1.54 1.025 2.475-.365 1.814-1.026 2.475z"/><path d="m153.116 193.925h-9.037v-38.609c0-.828-.672-1.5-1.5-1.5h-29.158c-.828 0-1.5.672-1.5 1.5v38.609h-9.037c-.606 0-1.153.365-1.386.926s-.104 1.206.325 1.635l25.116 25.116c.293.293.677.439 1.061.439s.768-.146 1.061-.439l25.116-25.116c.429-.429.558-1.074.325-1.635s-.779-.926-1.386-.926zm-25.116 24.495-21.495-21.495h6.916c.828 0 1.5-.672 1.5-1.5v-38.609h26.158v38.609c0 .828.672 1.5 1.5 1.5h6.916z"/><path d="m27.323 242.944h-18.003c-.828 0-1.5.672-1.5 1.5s.672 1.5 1.5 1.5h18.003c.828 0 1.5-.672 1.5-1.5s-.672-1.5-1.5-1.5z"/><path d="m246.68 242.944h-18.003c-.828 0-1.5.672-1.5 1.5s.672 1.5 1.5 1.5h18.003c.828 0 1.5-.672 1.5-1.5s-.672-1.5-1.5-1.5z"/><path d="m218.479 242.944h-180.958c-.828 0-1.5.672-1.5 1.5s.672 1.5 1.5 1.5h180.959c.828 0 1.5-.672 1.5-1.5s-.672-1.5-1.501-1.5z"/><path d="m9.32 234.972h62.336 112.687 62.337c.828 0 1.5-.672 1.5-1.5s-.672-1.5-1.5-1.5h-48.174c9.574-4.266 16.947-12.773 19.556-23.506l22.484-92.515c3.917-16.123-.572-32.924-12.011-44.941-8.756-9.198-20.975-14.646-33.663-15.045-10.625-27.504-37.368-45.909-66.872-45.909s-56.247 18.405-66.873 45.909c-12.689.398-24.907 5.847-33.663 15.045-11.438 12.018-15.928 28.818-12.011 44.941l22.484 92.515c2.609 10.733 9.982 19.24 19.556 23.506h-48.173c-.828 0-1.5.672-1.5 1.5s.672 1.5 1.5 1.5zm31.534-27.215-22.484-92.515c-3.676-15.127.536-30.889 11.269-42.164 8.436-8.862 20.3-14.015 32.549-14.135.622-.006 1.176-.396 1.393-.979 9.935-26.861 35.823-44.908 64.419-44.908s54.484 18.047 64.421 44.908c.217.584.771.974 1.393.979 12.249.12 24.113 5.272 32.549 14.135 10.732 11.275 14.944 27.037 11.269 42.164l-22.484 92.515c-3.465 14.258-16.132 24.215-30.804 24.215h-112.688c-14.671 0-27.338-9.957-30.802-24.215z"/></g></g></svg>