<?xml version="1.0" encoding="iso-8859-1"?>
<!-- Generator: Adobe Illustrator 18.0.0, SVG Export Plug-In . SVG Version: 6.00 Build 0)  -->
<!DOCTYPE svg PUBLIC "-//W3C//DTD SVG 1.1//EN" "http://www.w3.org/Graphics/SVG/1.1/DTD/svg11.dtd">
<svg version="1.1" id="Capa_1" xmlns="http://www.w3.org/2000/svg" xmlns:xlink="http://www.w3.org/1999/xlink" x="0px" y="0px"
	 viewBox="0 0 482.487 482.487" style="enable-background:new 0 0 482.487 482.487;" xml:space="preserve">
<g>
	<path d="M434.219,125.806H48.268C21.653,125.806,0,147.458,0,174.073v5.246v167.362c0,5.523,4.477,10,10,10h39.809
		c17.019,0,33.135-8.232,43.111-22.022c6.226-8.606,16.284-13.745,26.906-13.745h59.841c6.319,7.313,15.612,11.682,25.445,11.682
		h12.77c9.843,0,19.145-4.374,25.458-11.682h119.322c10.622,0,20.681,5.138,26.906,13.745c9.976,13.79,26.092,22.022,43.111,22.022
		h39.809c5.523,0,10-4.477,10-10V184.34v-5.021v-5.246C482.487,147.458,460.834,125.806,434.219,125.806z M48.268,145.806h385.952
		c13.966,0,25.592,10.184,27.86,23.514h-29.401c-17.019,0-33.135,8.233-43.111,22.023c-6.226,8.606-16.284,13.744-26.906,13.744
		H243.33c-6.325-7.312-15.621-11.68-25.448-11.68h-12.77c-9.822,0-19.114,4.369-25.439,11.68h-59.847
		c-10.622,0-20.681-5.138-26.906-13.744c-9.976-13.79-26.092-22.023-43.111-22.023H20.408
		C22.676,155.989,34.301,145.806,48.268,145.806z M251.437,225.086h46.058v75.828h-46.058
		C251.474,300.273,251.474,225.728,251.437,225.086z M76.714,322.936c-6.226,8.607-16.284,13.745-26.906,13.745H20V189.319h29.809
		c10.622,0,20.68,5.138,26.906,13.745c9.976,13.79,26.092,22.022,43.111,22.022h111.675c0,3.926,0,11.735,0,11.735h-19.643
		c-5.523,0-10,4.477-10,10s4.477,10,10,10h19.643v12.357h-19.643c-5.523,0-10,4.477-10,10s4.477,10,10,10h19.643
		c-0.039,1.305,0,8.583,0,11.735H119.826C102.807,300.914,86.69,309.146,76.714,322.936z M317.495,300.914v-75.828h39.021
		c20.906,0,37.914,17.008,37.914,37.914s-17.008,37.914-37.914,37.914H317.495z M462.487,336.681h-29.809
		c-10.622,0-20.68-5.138-26.906-13.745c-3.97-5.488-8.923-10.077-14.508-13.636c14.057-10.576,23.166-27.393,23.166-46.299
		c0-18.906-9.109-35.723-23.166-46.3c5.585-3.559,10.538-8.148,14.508-13.636c0,0,0,0,0,0c6.226-8.607,16.284-13.745,26.906-13.745
		h29.809V336.681z"/>
	<circle cx="171.002" cy="246.822" r="11.65"/>
	<circle cx="278.347" cy="246.822" r="11.65"/>
	<circle cx="171.002" cy="279.179" r="11.65"/>
	<circle cx="278.347" cy="279.179" r="11.65"/>
	<circle cx="344.344" cy="246.822" r="11.65"/>
	<circle cx="344.344" cy="279.179" r="11.65"/>
</g>
<g>
</g>
<g>
</g>
<g>
</g>
<g>
</g>
<g>
</g>
<g>
</g>
<g>
</g>
<g>
</g>
<g>
</g>
<g>
</g>
<g>
</g>
<g>
</g>
<g>
</g>
<g>
</g>
<g>
</g>
</svg>
