<?xml version="1.0" encoding="iso-8859-1"?>
<!-- Generator: Adobe Illustrator 18.0.0, SVG Export Plug-In . SVG Version: 6.00 Build 0)  -->
<!DOCTYPE svg PUBLIC "-//W3C//DTD SVG 1.1//EN" "http://www.w3.org/Graphics/SVG/1.1/DTD/svg11.dtd">
<svg version="1.1" id="Capa_1" xmlns="http://www.w3.org/2000/svg" xmlns:xlink="http://www.w3.org/1999/xlink" x="0px" y="0px"
	 viewBox="0 0 463.632 463.632" style="enable-background:new 0 0 463.632 463.632;" xml:space="preserve">
<path d="M453.632,350.269h-9.454c-12.845-39.54-46.709-74.066-94.42-96.076c-0.558-1.831-1.279-3.595-2.193-5.247
	c-1.617-2.97-3.74-5.598-6.308-7.806l-40.59-34.941l-37.471-42.245l14.858-12.452c4.232-3.547,4.788-9.854,1.24-14.087
	s-9.855-4.789-14.088-1.241l-8.227,6.895c0.846-2.929,2.276-5.713,4.27-8.182l45.272-56.083c3.469-4.297,2.798-10.593-1.5-14.063
	c-4.296-3.468-10.593-2.797-14.063,1.5l-45.272,56.083c-7.596,9.41-10.792,21.288-9.235,32.88l-13.493,2.72
	c-12.132,2.445-24.322-4.502-28.557-15.953c10.963-9.4,20.101-20.978,26.642-33.839l22-43.262
	c2.503-4.923,0.542-10.943-4.381-13.446c-4.924-2.505-10.943-0.543-13.447,4.381l-22,43.262
	c-4.208,8.275-9.731,15.901-16.258,22.525c-1.09-1.021-2.4-1.813-3.871-2.268c-3.218-0.996-6.715-0.305-9.313,1.836
	c-1.467,1.208-36.019,29.94-45.827,61.004c-5.01,15.851,1.423,32.911,15.646,41.489c4.003,2.412,8.605,4.715,13.673,6.842
	l12.594,5.297c-32.175,6.773-61.673,18.806-86.678,35.513c-32.039,21.407-53.924,48.581-63.732,78.963H10c-5.522,0-10,4.477-10,10
	v43.028c0,5.523,4.478,10,10,10h443.632c5.522,0,10-4.477,10-10v-43.028C463.632,354.746,459.154,350.269,453.632,350.269z
	 M153.917,206.524c-6.277-3.786-9.114-11.325-6.898-18.336c4.856-15.382,18.209-30.973,28.045-40.928
	c6.106,18.705,23.854,31.149,43.06,31.147c2.906,0,5.849-0.286,8.786-0.877l18.32-3.693l2.003,2.259l-12.765,4.255
	c-5.239,1.747-8.071,7.41-6.325,12.649c1.397,4.191,5.299,6.841,9.486,6.841c1.048,0,2.114-0.167,3.163-0.516l20.873-6.958
	l3.367,3.796l-14.364,4.788c-5.239,1.747-8.071,7.41-6.325,12.649c1.397,4.191,5.299,6.841,9.486,6.841
	c1.048,0,2.114-0.167,3.163-0.516l22.472-7.491l48.747,43.864c0.729,0.628,1.332,1.373,1.821,2.271
	c0.453,0.819,2.454,5.851-1.932,6.93c-14.498,3.566-30.003,2.537-43.751-3.249l-73.68-30.99l-45.656-19.203
	C160.827,210.3,157.093,208.437,153.917,206.524z M94.293,287.935c30.704-20.515,69.007-33.381,110.911-37.277l71.39,30.027
	c17.739,7.465,37.785,8.955,56.455,4.191c5.859-1.498,10.736-5.09,13.915-9.854c37.143,18.418,63.999,45.073,75.976,75.246H40.675
	C49.985,326.656,68.303,305.3,94.293,287.935z M443.632,393.297H20v-23.028h423.632V393.297z"/>
<g>
</g>
<g>
</g>
<g>
</g>
<g>
</g>
<g>
</g>
<g>
</g>
<g>
</g>
<g>
</g>
<g>
</g>
<g>
</g>
<g>
</g>
<g>
</g>
<g>
</g>
<g>
</g>
<g>
</g>
</svg>
