<?xml version="1.0" encoding="iso-8859-1"?>
<!-- Generator: Adobe Illustrator 18.0.0, SVG Export Plug-In . SVG Version: 6.00 Build 0)  -->
<!DOCTYPE svg PUBLIC "-//W3C//DTD SVG 1.1//EN" "http://www.w3.org/Graphics/SVG/1.1/DTD/svg11.dtd">
<svg version="1.1" id="Capa_1" xmlns="http://www.w3.org/2000/svg" xmlns:xlink="http://www.w3.org/1999/xlink" x="0px" y="0px"
	 viewBox="0 0 480.477 480.477" style="enable-background:new 0 0 480.477 480.477;" xml:space="preserve">
<path d="M341.426,164.263c4.92-7.162,6.808-15.818,5.316-24.373c-0.947-5.432-2.169-12.429-3.261-18.651
	c-2.063-11.748-10.843-20.994-22.37-23.555c-22.2-4.933-39.449-16.373-47.401-22.423c3.991-8.482,6.297-18.644,6.297-29.683
	C280.007,11.937,258.584,0,240.239,0S200.47,11.937,200.47,45.578c0,11.039,2.306,21.201,6.297,29.683
	c-7.952,6.05-25.2,17.49-47.401,22.423c-11.527,2.561-20.308,11.807-22.37,23.556c-1.092,6.222-2.314,13.219-3.26,18.65
	c-1.492,8.556,0.396,17.212,5.315,24.374l31.351,45.638c10.419,15.168,11.295,35.316,2.23,51.329
	c-2.527,4.465-2.492,9.991,0.092,14.423s7.376,7.185,12.507,7.185h24v60.643h-26.526c-11.008,0-19.964,8.956-19.964,19.964v57.781
	h-7.417c-5.523,0-10,4.477-10,10v39.25c0,5.523,4.477,10,10,10h169.83c5.523,0,10-4.477,10-10v-39.25c0-5.523-4.477-10-10-10h-7.422
	v-57.781c0-11.008-8.956-19.964-19.964-19.964h-26.516v-60.643h23.994c5.13,0,9.923-2.753,12.507-7.185s2.619-9.959,0.092-14.423
	c-9.064-16.014-8.189-36.162,2.23-51.329L341.426,164.263z M240.239,20c12.748,0,19.769,9.084,19.769,25.578
	c0,18.267-9.238,34.291-19.769,34.291c-10.531,0-19.769-16.024-19.769-34.291C220.47,29.084,227.491,20,240.239,20z
	 M153.438,143.324c0.946-5.425,2.166-12.414,3.256-18.628c0.659-3.75,3.41-6.689,7.009-7.489
	c25.664-5.703,45.295-18.505,54.925-25.82c6.186,5.377,13.582,8.481,21.61,8.481c8.028,0,15.424-3.104,21.61-8.481
	c9.63,7.315,29.261,20.117,54.925,25.82c3.6,0.8,6.351,3.74,7.009,7.489c1.091,6.215,2.311,13.203,3.257,18.629
	c0.588,3.373-0.157,6.787-2.099,9.613l-10.321,15.025l-41.44,9.615l-23.186-9.476v-19.931c0-5.523-4.477-10-10-10s-10,4.477-10,10
	v19.931l-23.185,9.476l-40.86-9.481l-10.414-15.159C153.595,150.112,152.85,146.698,153.438,143.324z M315.153,460.477h-149.83
	v-19.25h149.83V460.477z M297.731,421.227H182.736l-0.031-57.745l115.026-0.036V421.227z M251.251,343.482h-22.02v-60.643h22.02
	V343.482z M293.59,198.576c-12.979,18.893-15.475,43.256-7.103,64.262H193.99c8.372-21.006,5.876-45.369-7.103-64.262l-4.159-6.054
	l22.66,5.258c0.745,0.173,1.503,0.259,2.26,0.259c1.29,0,2.576-0.25,3.783-0.743l28.563-11.674l28.564,11.674
	c1.208,0.493,2.493,0.743,3.783,0.743c0.757,0,1.515-0.086,2.26-0.259l23.239-5.392L293.59,198.576z"/>
<g>
</g>
<g>
</g>
<g>
</g>
<g>
</g>
<g>
</g>
<g>
</g>
<g>
</g>
<g>
</g>
<g>
</g>
<g>
</g>
<g>
</g>
<g>
</g>
<g>
</g>
<g>
</g>
<g>
</g>
</svg>
