<?xml version="1.0" encoding="iso-8859-1"?>
<!-- Generator: Adobe Illustrator 18.0.0, SVG Export Plug-In . SVG Version: 6.00 Build 0)  -->
<!DOCTYPE svg PUBLIC "-//W3C//DTD SVG 1.1//EN" "http://www.w3.org/Graphics/SVG/1.1/DTD/svg11.dtd">
<svg version="1.1" id="Capa_1" xmlns="http://www.w3.org/2000/svg" xmlns:xlink="http://www.w3.org/1999/xlink" x="0px" y="0px"
	 viewBox="0 0 471.478 471.478" style="enable-background:new 0 0 471.478 471.478;" xml:space="preserve">
<g>
	<path d="M393.022,157.284c-31.101,0-58.033,18.191-70.716,44.491c-22.557-7.621-53.38-11.912-86.563-11.912
		c-33.188,0-64.014,4.291-86.573,11.912c-12.683-26.3-39.614-44.491-70.715-44.491C35.194,157.284,0,192.479,0,235.739
		s35.194,78.455,78.455,78.455c31.099,0,58.029-18.188,70.713-44.486c22.565,7.617,53.392,11.905,86.575,11.905
		c33.177,0,64.002-4.289,86.566-11.906c12.684,26.298,39.614,44.486,70.713,44.486c43.261,0,78.455-35.195,78.455-78.455
		S436.283,157.284,393.022,157.284z M78.455,294.194C46.223,294.194,20,267.971,20,235.739s26.223-58.455,58.455-58.455
		s58.455,26.223,58.455,58.455S110.688,294.194,78.455,294.194z M235.743,261.614c-30.744,0-59.926-4.013-80.285-10.892
		c0.943-4.853,1.452-9.858,1.452-14.983c0-5.122-0.509-10.126-1.451-14.977c20.352-6.883,49.532-10.899,80.284-10.899
		c30.747,0,59.924,4.016,80.275,10.9c-0.942,4.851-1.451,9.854-1.451,14.976c0,5.124,0.509,10.129,1.452,14.982
		C295.661,257.6,266.482,261.614,235.743,261.614z M393.022,294.194c-32.232,0-58.455-26.223-58.455-58.455
		s26.223-58.455,58.455-58.455s58.455,26.223,58.455,58.455S425.255,294.194,393.022,294.194z"/>
	<path d="M393.022,185.533c-5.522,0-10,4.477-10,10s4.478,10,10,10c16.655,0,30.206,13.55,30.206,30.206c0,5.523,4.478,10,10,10
		s10-4.477,10-10C443.229,208.055,420.706,185.533,393.022,185.533z"/>
	<path d="M81.038,185.533c-5.522,0-10,4.477-10,10s4.478,10,10,10c16.655,0,30.206,13.55,30.206,30.206c0,5.523,4.478,10,10,10
		s10-4.477,10-10C131.244,208.055,108.722,185.533,81.038,185.533z"/>
</g>
<g>
</g>
<g>
</g>
<g>
</g>
<g>
</g>
<g>
</g>
<g>
</g>
<g>
</g>
<g>
</g>
<g>
</g>
<g>
</g>
<g>
</g>
<g>
</g>
<g>
</g>
<g>
</g>
<g>
</g>
</svg>
