<?xml version="1.0" encoding="iso-8859-1"?>
<!-- Generator: Adobe Illustrator 18.0.0, SVG Export Plug-In . SVG Version: 6.00 Build 0)  -->
<!DOCTYPE svg PUBLIC "-//W3C//DTD SVG 1.1//EN" "http://www.w3.org/Graphics/SVG/1.1/DTD/svg11.dtd">
<svg version="1.1" id="Capa_1" xmlns="http://www.w3.org/2000/svg" xmlns:xlink="http://www.w3.org/1999/xlink" x="0px" y="0px"
	 viewBox="0 0 422.971 422.971" style="enable-background:new 0 0 422.971 422.971;" xml:space="preserve">
<g>
	<path d="M388.579,20.633c-2.74-4.795-8.849-6.459-13.644-3.721l-64.324,36.756c-4.795,2.74-6.461,8.849-3.721,13.644
		c1.846,3.23,5.22,5.04,8.692,5.04c1.482,0,2.975-0.351,4.381-1.041l-10.057,32.053l-19.577-12.271l10.636-79.77
		c0.73-5.475-3.116-10.504-8.59-11.234c-5.471-0.731-10.504,3.116-11.234,8.59l-11.486,86.147c-0.518,3.884,1.281,7.713,4.601,9.795
		l29.462,18.468l-67.021,213.607c-11.091-15.077-24.418-28.558-39.753-40.077c-22.331-16.773-47.463-28.313-74.138-34.21
		L93.481,133.737l33.783,2.314c0.232,0.016,0.463,0.024,0.693,0.024c5.211,0,9.605-4.04,9.966-9.317
		c0.377-5.51-3.783-10.282-9.293-10.66l-51.256-3.511c-10.741-0.736-20.306-6.776-25.585-16.159
		c-2.708-4.812-8.806-6.518-13.62-3.81c-4.813,2.709-6.519,8.807-3.81,13.62c8.035,14.276,22.166,23.796,38.257,25.955
		l28.886,126.752c-6.845-0.726-13.764-1.099-20.741-1.099c-23.116,0-41.923,18.807-41.923,41.923v100.417
		c0,5.411,4.301,9.807,9.669,9.983v2.802c0,5.523,4.477,10,10,10s10-4.477,10-10v-2.785h159.991v2.785c0,5.523,4.477,10,10,10
		s10-4.477,10-10v-2.785h8.447c3.145,0,6.107-1.479,7.996-3.994s2.485-5.771,1.608-8.792c-3.932-13.554-9.244-26.465-15.826-38.602
		l94.762-302.021l39.373-22.499C389.653,31.537,391.319,25.429,388.579,20.633z M58.839,299.769
		c0-12.088,9.834-21.923,21.923-21.923c37.869,0,73.891,12.022,104.169,34.766c26.667,20.031,46.589,46.66,58.169,77.574H58.839
		V299.769z"/>
	<path d="M144.357,347.54h-5.441l14.43-29.62c2.419-4.965,0.355-10.951-4.61-13.37c-4.966-2.418-10.951-0.355-13.37,4.61
		l-18.698,38.38h-9.312c-5.523,0-10,4.477-10,10s4.477,10,10,10h37c5.523,0,10-4.477,10-10S149.88,347.54,144.357,347.54z"/>
</g>
<g>
</g>
<g>
</g>
<g>
</g>
<g>
</g>
<g>
</g>
<g>
</g>
<g>
</g>
<g>
</g>
<g>
</g>
<g>
</g>
<g>
</g>
<g>
</g>
<g>
</g>
<g>
</g>
<g>
</g>
</svg>
