<?xml version="1.0" encoding="iso-8859-1"?>
<!-- Generator: Adobe Illustrator 18.0.0, SVG Export Plug-In . SVG Version: 6.00 Build 0)  -->
<!DOCTYPE svg PUBLIC "-//W3C//DTD SVG 1.1//EN" "http://www.w3.org/Graphics/SVG/1.1/DTD/svg11.dtd">
<svg version="1.1" id="Capa_1" xmlns="http://www.w3.org/2000/svg" xmlns:xlink="http://www.w3.org/1999/xlink" x="0px" y="0px"
	 viewBox="0 0 445.98 445.98" style="enable-background:new 0 0 445.98 445.98;" xml:space="preserve">
<g>
	<path d="M126.887,257.689V10c0-5.523-4.477-10-10-10s-10,4.477-10,10v247.689c-47.374,5.01-84.411,45.2-84.411,93.88
		c0,52.058,42.353,94.411,94.411,94.411s94.41-42.353,94.41-94.411C211.297,302.889,174.261,262.699,126.887,257.689z
		 M116.887,425.98c-41.03,0-74.411-33.38-74.411-74.411c0-41.03,33.38-74.41,74.411-74.41c41.03,0,74.41,33.38,74.41,74.41
		C191.297,392.6,157.917,425.98,116.887,425.98z"/>
	<path d="M339.094,257.689V10c0-5.523-4.478-10-10-10s-10,4.477-10,10v247.689c-47.375,5.01-84.411,45.2-84.411,93.88
		c0,52.058,42.353,94.411,94.411,94.411c52.058,0,94.41-42.353,94.41-94.411C423.504,302.889,386.468,262.699,339.094,257.689z
		 M329.094,425.98c-41.03,0-74.411-33.38-74.411-74.411c0-41.03,33.381-74.41,74.411-74.41s74.41,33.38,74.41,74.41
		C403.504,392.6,370.124,425.98,329.094,425.98z"/>
	<path d="M116.887,286.162c-36.066,0-65.408,29.342-65.408,65.407s29.342,65.407,65.408,65.407
		c36.065,0,65.407-29.342,65.407-65.407S152.952,286.162,116.887,286.162z M116.887,396.977c-25.038,0-45.408-20.37-45.408-45.407
		s20.37-45.407,45.408-45.407c25.038,0,45.407,20.37,45.407,45.407S141.924,396.977,116.887,396.977z"/>
	<path d="M329.094,286.162c-36.065,0-65.407,29.342-65.407,65.407s29.342,65.407,65.407,65.407s65.407-29.342,65.407-65.407
		S365.159,286.162,329.094,286.162z M329.094,396.977c-25.038,0-45.407-20.37-45.407-45.407s20.369-45.407,45.407-45.407
		s45.407,20.37,45.407,45.407S354.132,396.977,329.094,396.977z"/>
</g>
<g>
</g>
<g>
</g>
<g>
</g>
<g>
</g>
<g>
</g>
<g>
</g>
<g>
</g>
<g>
</g>
<g>
</g>
<g>
</g>
<g>
</g>
<g>
</g>
<g>
</g>
<g>
</g>
<g>
</g>
</svg>
