<?xml version="1.0" encoding="iso-8859-1"?>
<!-- Generator: Adobe Illustrator 18.0.0, SVG Export Plug-In . SVG Version: 6.00 Build 0)  -->
<!DOCTYPE svg PUBLIC "-//W3C//DTD SVG 1.1//EN" "http://www.w3.org/Graphics/SVG/1.1/DTD/svg11.dtd">
<svg version="1.1" id="Capa_1" xmlns="http://www.w3.org/2000/svg" xmlns:xlink="http://www.w3.org/1999/xlink" x="0px" y="0px"
	 viewBox="0 0 459.196 459.196" style="enable-background:new 0 0 459.196 459.196;" xml:space="preserve">
<g>
	<path d="M370.219,152.312c-14.538-33.293-38.045-61.683-68.206-82.296C269.871,48.049,232.23,36.438,193.16,36.438
		C86.651,36.438,0,123.089,0,229.598s86.651,193.16,193.16,193.16c23.558,0,46.516-4.184,68.313-12.437
		c17.599,7.986,37.129,12.437,57.679,12.437c77.22,0,140.043-62.823,140.043-140.043
		C459.196,223.505,422.259,172.762,370.219,152.312z M193.16,402.758C97.679,402.758,20,325.079,20,229.598
		s77.679-173.16,173.16-173.16c35.026,0,68.765,10.405,97.567,30.09c22.268,15.218,40.47,35.17,53.489,58.393
		c-8.135-1.476-16.51-2.25-25.064-2.25c-3.442,0-6.853,0.13-10.233,0.376c-27.261-36.419-70.09-57.999-115.759-57.999
		c-79.705,0-144.55,64.845-144.55,144.55s64.845,144.55,144.55,144.55c6.354,0,12.706-0.417,18.955-1.237
		c7.621,9.03,16.355,17.093,25.999,23.959C223.546,400.781,208.497,402.758,193.16,402.758z M185.946,239.486
		c-3.055-2.24-5.056-5.847-5.056-9.889c0-6.766,5.504-12.27,12.27-12.27c0.707,0,1.401,0.071,2.084,0.187
		C191.548,224.511,188.428,231.856,185.946,239.486z M206.176,200.061c-4.05-1.786-8.461-2.733-13.016-2.733
		c-17.794,0-32.27,14.476-32.27,32.27c0,13.423,8.37,25.051,20.158,29.877c-1.268,7.562-1.939,15.323-1.939,23.239
		c0,26.026,7.145,50.411,19.563,71.312c-1.834,0.08-3.673,0.121-5.512,0.121c-68.677,0-124.55-55.873-124.55-124.55
		c0-68.677,55.873-124.55,124.55-124.55c35.703,0,69.396,15.308,92.883,41.587C253.518,154.55,225.404,173.849,206.176,200.061z
		 M319.152,402.758c-66.192,0-120.043-53.851-120.043-120.043s53.851-120.043,120.043-120.043s120.043,53.851,120.043,120.043
		S385.345,402.758,319.152,402.758z"/>
	<path d="M319.152,184.685c-54.054,0-98.03,43.976-98.03,98.03s43.976,98.03,98.03,98.03s98.03-43.976,98.03-98.03
		S373.206,184.685,319.152,184.685z M319.152,360.744c-43.026,0-78.03-35.004-78.03-78.03s35.004-78.03,78.03-78.03
		s78.03,35.004,78.03,78.03S362.178,360.744,319.152,360.744z"/>
	<path d="M319.152,250.903c-17.541,0-31.812,14.271-31.812,31.812s14.271,31.812,31.812,31.812s31.812-14.271,31.812-31.812
		S336.693,250.903,319.152,250.903z M319.152,294.526c-6.513,0-11.812-5.299-11.812-11.812s5.299-11.812,11.812-11.812
		s11.812,5.299,11.812,11.812S325.665,294.526,319.152,294.526z"/>
</g>
<g>
</g>
<g>
</g>
<g>
</g>
<g>
</g>
<g>
</g>
<g>
</g>
<g>
</g>
<g>
</g>
<g>
</g>
<g>
</g>
<g>
</g>
<g>
</g>
<g>
</g>
<g>
</g>
<g>
</g>
</svg>
