<?xml version="1.0" encoding="iso-8859-1"?>
<!-- Generator: Adobe Illustrator 18.0.0, SVG Export Plug-In . SVG Version: 6.00 Build 0)  -->
<!DOCTYPE svg PUBLIC "-//W3C//DTD SVG 1.1//EN" "http://www.w3.org/Graphics/SVG/1.1/DTD/svg11.dtd">
<svg version="1.1" id="Capa_1" xmlns="http://www.w3.org/2000/svg" xmlns:xlink="http://www.w3.org/1999/xlink" x="0px" y="0px"
	 viewBox="0 0 440.478 440.478" style="enable-background:new 0 0 440.478 440.478;" xml:space="preserve">
<g>
	<path d="M43,282.224h100.492c5.522,0,10-4.477,10-10v-70.483c0-5.523-4.478-10-10-10H43c-5.522,0-10,4.477-10,10v70.483
		C33,277.747,37.478,282.224,43,282.224z M53,211.741h80.492v50.483H53V211.741z"/>
	<path d="M93.246,293.734c-27.845,0-50.498,22.653-50.498,50.498s22.653,50.498,50.498,50.498c27.844,0,50.497-22.653,50.497-50.498
		S121.09,293.734,93.246,293.734z M93.246,374.731c-16.816,0-30.498-13.681-30.498-30.498s13.682-30.498,30.498-30.498
		s30.497,13.681,30.497,30.498S110.063,374.731,93.246,374.731z"/>
	<path d="M426.229,72.446c-3.775,0-7.198,1.479-9.748,3.875c-33.074,1.57-59.499,28.965-59.499,62.421v95.295
		c-18.623-4.51-32.498-21.309-32.498-41.298V83.246c0-22.765,17.994-41.402,40.505-42.447c2.494,2.145,5.731,3.449,9.278,3.449
		c7.87,0,14.25-6.38,14.25-14.25s-6.38-14.249-14.25-14.249c-4.392,0-8.316,1.99-10.93,5.113
		c-32.771,1.895-58.854,29.146-58.854,62.383V192.74c0,31.058,22.773,56.897,52.498,61.698v80.045
		c0,23.847-19.401,43.247-43.248,43.247s-43.247-19.4-43.247-43.247V145.492c0-64.649-52.596-117.245-117.245-117.245
		c-64.648,0-117.244,52.596-117.244,117.245v13.249h-6.827C13.086,158.741,0,171.827,0,187.912v207.646
		c0,16.085,13.086,29.171,29.171,29.171H157.32c16.085,0,29.171-13.086,29.171-29.171V187.912c0-16.085-13.086-29.171-29.171-29.171
		H55.998v-13.249c0-53.621,43.624-97.245,97.245-97.245c53.62,0,97.244,43.624,97.244,97.245v188.991
		c0,34.875,28.372,63.247,63.247,63.247s63.248-28.373,63.248-63.247v-86.246v-3V138.743c0-22.202,17.117-40.471,38.845-42.33
		c2.601,2.782,6.292,4.532,10.401,4.532c7.87,0,14.249-6.379,14.249-14.249S434.099,72.446,426.229,72.446z M166.491,187.912
		v207.646c0,5.057-4.114,9.171-9.171,9.171H29.171c-5.057,0-9.171-4.114-9.171-9.171V187.912c0-5.057,4.114-9.171,9.171-9.171
		H157.32C162.377,178.741,166.491,182.856,166.491,187.912z"/>
</g>
<g>
</g>
<g>
</g>
<g>
</g>
<g>
</g>
<g>
</g>
<g>
</g>
<g>
</g>
<g>
</g>
<g>
</g>
<g>
</g>
<g>
</g>
<g>
</g>
<g>
</g>
<g>
</g>
<g>
</g>
</svg>
