<?xml version="1.0" encoding="iso-8859-1"?>
<!-- Generator: Adobe Illustrator 18.0.0, SVG Export Plug-In . SVG Version: 6.00 Build 0)  -->
<!DOCTYPE svg PUBLIC "-//W3C//DTD SVG 1.1//EN" "http://www.w3.org/Graphics/SVG/1.1/DTD/svg11.dtd">
<svg version="1.1" id="Capa_1" xmlns="http://www.w3.org/2000/svg" xmlns:xlink="http://www.w3.org/1999/xlink" x="0px" y="0px"
	 viewBox="0 0 448.504 448.504" style="enable-background:new 0 0 448.504 448.504;" xml:space="preserve">
<g>
	<path d="M96.059,119.362c-2.071-2.07-4.941-3.129-7.863-2.897c-2.918,0.232-5.589,1.731-7.307,4.102
		c-21.958,30.311-33.565,66.165-33.565,103.686c0,97.559,79.37,176.928,176.928,176.928c37.521,0,73.375-11.606,103.686-33.565
		c2.371-1.717,3.87-4.388,4.102-7.307c0.231-2.918-0.828-5.792-2.897-7.863L96.059,119.362z M165.87,217.459l66.193,66.193
		l-14.051,14.051c-18.252,18.245-47.95,18.244-66.198,0.003c-18.245-18.253-18.245-47.946-0.002-66.189L165.87,217.459z
		 M224.252,381.18c-86.531,0-156.928-70.397-156.928-156.928c0-29.314,7.986-57.48,23.196-82.144l61.208,61.208l-14.058,14.058
		c-26.04,26.04-26.04,68.419,0.002,94.474c13.024,13.018,30.131,19.527,47.239,19.527c17.108,0,34.217-6.51,47.242-19.529
		l14.052-14.052l60.191,60.191C281.732,373.195,253.567,381.18,224.252,381.18z"/>
	<path d="M382.823,65.682C340.467,23.326,284.152,0,224.252,0S108.038,23.326,65.682,65.682C23.326,108.038,0,164.352,0,224.252
		s23.326,116.214,65.682,158.57c42.355,42.355,98.67,65.682,158.57,65.682s116.214-23.326,158.57-65.682
		c42.355-42.356,65.682-98.67,65.682-158.57S425.178,108.038,382.823,65.682z M224.252,428.504
		C111.627,428.504,20,336.877,20,224.252S111.627,20,224.252,20s204.252,91.627,204.252,204.252S336.877,428.504,224.252,428.504z"
		/>
	<path d="M224.252,47.324c-37.521,0-73.375,11.606-103.686,33.565c-2.371,1.718-3.87,4.388-4.102,7.307
		c-0.231,2.918,0.828,5.792,2.897,7.862l233.084,233.084c1.882,1.882,4.429,2.929,7.07,2.929c0.263,0,0.527-0.01,0.792-0.031
		c2.918-0.232,5.589-1.731,7.307-4.102c21.958-30.311,33.565-66.165,33.565-103.686C401.18,126.694,321.811,47.324,224.252,47.324z
		 M283.646,232.059l-66.188-66.188l14.054-14.054c8.838-8.839,20.591-13.707,33.094-13.707s24.255,4.868,33.094,13.707
		c8.842,8.841,13.711,20.592,13.711,33.089c0,12.502-4.869,24.257-13.711,33.099L283.646,232.059z M357.984,306.397l-60.196-60.196
		l14.055-14.055c12.619-12.619,19.568-29.396,19.568-47.241c0-17.838-6.95-34.612-19.568-47.231
		c-12.616-12.616-29.392-19.564-47.236-19.564s-34.62,6.948-47.236,19.564l-14.054,14.054L142.108,90.52
		c24.664-15.21,52.83-23.196,82.145-23.196c86.53,0,156.928,70.397,156.928,156.928C381.18,253.567,373.194,281.733,357.984,306.397
		z"/>
</g>
<g>
</g>
<g>
</g>
<g>
</g>
<g>
</g>
<g>
</g>
<g>
</g>
<g>
</g>
<g>
</g>
<g>
</g>
<g>
</g>
<g>
</g>
<g>
</g>
<g>
</g>
<g>
</g>
<g>
</g>
</svg>
