<?xml version="1.0" encoding="iso-8859-1"?>
<!-- Generator: Adobe Illustrator 18.0.0, SVG Export Plug-In . SVG Version: 6.00 Build 0)  -->
<!DOCTYPE svg PUBLIC "-//W3C//DTD SVG 1.1//EN" "http://www.w3.org/Graphics/SVG/1.1/DTD/svg11.dtd">
<svg version="1.1" id="Capa_1" xmlns="http://www.w3.org/2000/svg" xmlns:xlink="http://www.w3.org/1999/xlink" x="0px" y="0px"
	 viewBox="0 0 464.582 464.582" style="enable-background:new 0 0 464.582 464.582;" xml:space="preserve">
<g>
	<path d="M461.392,223.896c-7.839-16.573-27.7-23.678-44.272-15.84c-12.331,5.832-19.414,18.32-19.008,31.156l-5.94,1.384
		L375.93,164.56c4.591-3.771,8.094-8.725,10.147-14.463c2.992-8.362,2.548-17.389-1.249-25.417
		c-7.84-16.573-27.7-23.68-44.272-15.84c-13.632,6.448-20.85,21.029-18.624,35.224l-264.9,158.358
		c-3.482-3.568-7.753-6.33-12.585-8.059c-8.362-2.992-17.388-2.547-25.416,1.249C2.458,303.45-4.648,323.31,3.19,339.884
		c3.798,8.028,10.494,14.098,18.856,17.089c3.66,1.31,7.447,1.96,11.223,1.96c4.85,0,9.681-1.075,14.195-3.21
		c13.687-6.474,20.906-21.148,18.593-35.397L330.87,162.02c3.503,3.627,7.815,6.433,12.702,8.181c3.66,1.31,7.447,1.96,11.223,1.96
		c0.764,0,1.528-0.036,2.29-0.09l27.041,126.601c-5.449,3.901-9.588,9.35-11.894,15.794c-2.991,8.362-2.547,17.388,1.25,25.417
		c3.798,8.028,10.494,14.098,18.856,17.089c3.66,1.31,7.446,1.96,11.222,1.96c4.85,0,9.681-1.075,14.195-3.21
		c16.572-7.839,23.678-27.7,15.839-44.272c-5.711-12.072-17.801-19.113-30.351-19.021l-6.893-32.271l8.488-1.978
		c6.354,8.392,16.279,13.178,26.55,13.178c4.758,0,9.587-1.025,14.166-3.19C462.125,260.33,469.231,240.469,461.392,223.896z
		 M38.912,337.644c-6.604,3.124-14.519,0.293-17.643-6.311c-3.123-6.604-0.292-14.519,6.313-17.642
		c1.799-0.851,3.723-1.279,5.655-1.279c1.504,0,3.014,0.259,4.472,0.781c3.332,1.192,6.001,3.61,7.514,6.81
		C48.347,326.606,45.516,334.52,38.912,337.644z M350.309,151.371c-3.332-1.192-6.001-3.611-7.514-6.81
		c-1.514-3.199-1.69-6.796-0.498-10.128s3.61-6.001,6.811-7.514c1.824-0.863,3.748-1.271,5.644-1.271
		c4.966,0,9.736,2.804,11.997,7.583c1.514,3.199,1.69,6.796,0.498,10.128s-3.61,6-6.811,7.514
		C357.237,152.386,353.639,152.562,350.309,151.371z M415.513,320.003c3.124,6.604,0.293,14.518-6.311,17.641
		c-6.606,3.126-14.519,0.292-17.642-6.312c-1.514-3.199-1.69-6.796-0.498-10.128c1.191-3.332,3.61-6,6.809-7.514
		c1.825-0.863,3.749-1.271,5.645-1.271C408.482,312.42,413.252,315.224,415.513,320.003z M437.001,250.09
		c-6.605,3.124-14.52,0.292-17.643-6.311c-3.123-6.604-0.292-14.519,6.312-17.643c1.825-0.863,3.749-1.271,5.645-1.271
		c4.966,0,9.736,2.804,11.997,7.583C446.436,239.052,443.605,246.966,437.001,250.09z"/>
	<path d="M69.716,284.747c1.745,0,3.514-0.458,5.121-1.418L305.34,145.533c4.74-2.833,6.286-8.974,3.452-13.714
		c-2.834-4.74-8.972-6.286-13.714-3.452L64.576,266.163c-4.74,2.833-6.286,8.974-3.452,13.714
		C62.996,283.01,66.313,284.747,69.716,284.747z"/>
</g>
<g>
</g>
<g>
</g>
<g>
</g>
<g>
</g>
<g>
</g>
<g>
</g>
<g>
</g>
<g>
</g>
<g>
</g>
<g>
</g>
<g>
</g>
<g>
</g>
<g>
</g>
<g>
</g>
<g>
</g>
</svg>
