<?xml version="1.0" encoding="iso-8859-1"?>
<!-- Generator: Adobe Illustrator 18.0.0, SVG Export Plug-In . SVG Version: 6.00 Build 0)  -->
<!DOCTYPE svg PUBLIC "-//W3C//DTD SVG 1.1//EN" "http://www.w3.org/Graphics/SVG/1.1/DTD/svg11.dtd">
<svg version="1.1" id="Capa_1" xmlns="http://www.w3.org/2000/svg" xmlns:xlink="http://www.w3.org/1999/xlink" x="0px" y="0px"
	 viewBox="0 0 447.211 447.211" style="enable-background:new 0 0 447.211 447.211;" xml:space="preserve">
<path d="M337.517,228.417c-25.896-36.923-44.458-78.836-55.173-124.577c-1.032-4.406-2.867-13.32-2.971-13.827
	c-2.935-14.954-16.099-25.803-31.318-25.803h-14.447v-5.791h3.814c12.18,0,22.089-9.909,22.089-22.088v-0.427
	c0-9.797-4.075-19.286-11.182-26.035c-7.208-6.845-16.648-10.336-26.61-9.819c-19.073,0.985-34.014,16.921-34.014,36.28
	c0,12.179,9.908,22.088,22.088,22.088h3.814v5.791h-14.396c-15.347,0-28.536,10.947-31.348,25.97
	c-0.113,0.575-1.602,7.867-2.343,11.125c-10.29,45.166-29.403,88.409-56.808,128.527c-16.136,23.623-24.484,51.296-24.142,80.027
	c0.893,74.985,60.291,135.295,135.227,137.301c1.286,0.034,2.566,0.052,3.848,0.052c36.455-0.001,70.754-13.912,96.945-39.411
	c27.121-26.405,42.057-61.788,42.057-99.633C362.648,279.436,353.958,251.859,337.517,228.417z M207.705,36.331
	c0-8.708,6.608-15.871,15.045-16.307c4.425-0.229,8.614,1.316,11.807,4.347c3.194,3.034,4.954,7.13,4.954,11.533v0.427
	c0,1.151-0.938,2.088-2.089,2.088h-4.509c-1.458-3.719-5.07-6.356-9.305-6.356s-7.847,2.637-9.305,6.356h-4.509
	C208.642,38.419,207.705,37.482,207.705,36.331z M236.91,420.651c-4.662,4.502-9.271,6.705-13.765,6.551
	c-9.674-0.338-20.341-12.253-28.535-31.873c-9.54-22.844-14.883-53.257-15.045-85.639c-0.128-25.735,2.983-50.448,8.996-71.468
	c13.719-47.958,22.593-99.755,26.422-154.012h17.255c4.056,55.728,13.022,108.416,26.049,152.767
	c6.124,20.848,9.36,45.465,9.36,71.19C267.648,365.364,252.21,405.876,236.91,420.651z M104.57,309.62
	c-0.293-24.604,6.851-48.293,20.659-68.508c28.825-42.199,48.942-87.742,59.793-135.367c0.824-3.625,2.407-11.398,2.488-11.826
	c0.773-4.13,3.635-7.421,7.365-8.884c-3.816,52.06-12.392,101.717-25.542,147.686c-6.526,22.815-9.904,49.465-9.768,77.068
	c0.175,34.933,6.066,68.049,16.59,93.247c2.807,6.721,5.902,12.711,9.228,17.974C138.633,405.326,105.189,361.59,104.57,309.62z
	 M306.64,393.469c-12.911,12.571-28.132,21.842-44.677,27.454c15.909-25.429,25.686-67.175,25.686-112.757
	c0-27.607-3.517-54.173-10.171-76.826c-12.458-42.412-21.102-92.83-25.131-146.316c3.725,1.452,6.601,4.735,7.404,8.856l0.001,0
	c0.215,1.064,2.068,10.032,3.12,14.522c11.299,48.235,30.904,92.478,58.271,131.499c14.07,20.06,21.507,43.666,21.507,68.266
	C342.648,340.568,329.86,370.862,306.64,393.469z"/>
<g>
</g>
<g>
</g>
<g>
</g>
<g>
</g>
<g>
</g>
<g>
</g>
<g>
</g>
<g>
</g>
<g>
</g>
<g>
</g>
<g>
</g>
<g>
</g>
<g>
</g>
<g>
</g>
<g>
</g>
</svg>
