<?xml version="1.0" encoding="iso-8859-1"?>
<!-- Generator: Adobe Illustrator 18.0.0, SVG Export Plug-In . SVG Version: 6.00 Build 0)  -->
<!DOCTYPE svg PUBLIC "-//W3C//DTD SVG 1.1//EN" "http://www.w3.org/Graphics/SVG/1.1/DTD/svg11.dtd">
<svg version="1.1" id="Capa_1" xmlns="http://www.w3.org/2000/svg" xmlns:xlink="http://www.w3.org/1999/xlink" x="0px" y="0px"
	 viewBox="0 0 470.733 470.733" style="enable-background:new 0 0 470.733 470.733;" xml:space="preserve">
<path d="M296.125,85.733h-8.646L244.172,5.261C242.428,2.021,239.046,0,235.366,0c-3.68,0-7.062,2.021-8.806,5.261l-43.306,80.472
	h-8.646c-19.433,0-35.242,15.81-35.242,35.242v314.516c0,19.433,15.81,35.242,35.242,35.242h121.516
	c19.433,0,35.242-15.81,35.242-35.242V120.975C331.367,101.543,315.557,85.733,296.125,85.733z M245.366,49.683l19.4,36.05h-19.4
	V49.683z M225.366,49.684v36.049h-19.4L225.366,49.684z M172.396,105.913l-4.009,7.449c-2.617,4.863-0.796,10.927,4.067,13.545
	c4.862,2.617,10.928,0.796,13.544-4.067l9.206-17.106h80.326l9.206,17.106c1.806,3.356,5.253,5.263,8.814,5.263
	c1.6,0,3.223-0.385,4.73-1.196c4.863-2.617,6.684-8.681,4.066-13.545l-4.009-7.449c7.357,1.078,13.029,7.412,13.029,15.063v8.758
	h-152v-8.758C159.366,113.324,165.039,106.99,172.396,105.913z M311.367,149.733v262h-152v-262H311.367z M296.125,450.733H174.609
	c-8.405,0-15.242-6.838-15.242-15.242v-3.758h152v3.758C311.367,443.896,304.529,450.733,296.125,450.733z"/>
<g>
</g>
<g>
</g>
<g>
</g>
<g>
</g>
<g>
</g>
<g>
</g>
<g>
</g>
<g>
</g>
<g>
</g>
<g>
</g>
<g>
</g>
<g>
</g>
<g>
</g>
<g>
</g>
<g>
</g>
</svg>
