<?xml version="1.0" encoding="iso-8859-1"?>
<!-- Generator: Adobe Illustrator 18.0.0, SVG Export Plug-In . SVG Version: 6.00 Build 0)  -->
<!DOCTYPE svg PUBLIC "-//W3C//DTD SVG 1.1//EN" "http://www.w3.org/Graphics/SVG/1.1/DTD/svg11.dtd">
<svg version="1.1" id="Capa_1" xmlns="http://www.w3.org/2000/svg" xmlns:xlink="http://www.w3.org/1999/xlink" x="0px" y="0px"
	 viewBox="0 0 444.493 444.493" style="enable-background:new 0 0 444.493 444.493;" xml:space="preserve">
<path d="M434.493,77.77h-5.001c-2.909-21.022-20.985-37.265-42.794-37.265c-23.828,0-43.214,19.386-43.214,43.214v179.033
	c0,66.85-54.387,121.236-121.236,121.236s-121.236-54.386-121.236-121.236V83.719c0-23.828-19.386-43.214-43.215-43.214
	c-21.809,0-39.886,16.243-42.794,37.265H10c-5.522,0-10,4.477-10,10s4.478,10,10,10h4.582v48.327c0,5.523,4.478,10,10,10
	s10-4.477,10-10V97.77h4.582c5.522,0,10-4.477,10-10s-4.478-10-10-10h-3.806c2.634-9.927,11.694-17.265,22.438-17.265
	c12.801,0,23.215,10.414,23.215,23.214v179.033c0,77.878,63.358,141.236,141.236,141.236s141.236-63.358,141.236-141.236V83.719
	c0-12.8,10.414-23.214,23.214-23.214c10.744,0,19.803,7.338,22.438,17.265h-3.805c-5.522,0-10,4.477-10,10s4.478,10,10,10h4.581
	v48.327c0,5.523,4.478,10,10,10s10-4.477,10-10V97.77h4.582c5.522,0,10-4.477,10-10S440.016,77.77,434.493,77.77z"/>
<g>
</g>
<g>
</g>
<g>
</g>
<g>
</g>
<g>
</g>
<g>
</g>
<g>
</g>
<g>
</g>
<g>
</g>
<g>
</g>
<g>
</g>
<g>
</g>
<g>
</g>
<g>
</g>
<g>
</g>
</svg>
