<?xml version="1.0" encoding="iso-8859-1"?>
<!-- Generator: Adobe Illustrator 18.0.0, SVG Export Plug-In . SVG Version: 6.00 Build 0)  -->
<!DOCTYPE svg PUBLIC "-//W3C//DTD SVG 1.1//EN" "http://www.w3.org/Graphics/SVG/1.1/DTD/svg11.dtd">
<svg version="1.1" id="Capa_1" xmlns="http://www.w3.org/2000/svg" xmlns:xlink="http://www.w3.org/1999/xlink" x="0px" y="0px"
	 viewBox="0 0 471.999 471.999" style="enable-background:new 0 0 471.999 471.999;" xml:space="preserve">
<path d="M372.831,157.244c-31.86-17.578-50.943-52.399-48.617-88.711l2.428-37.894c0.249-3.881-1.776-7.555-5.19-9.418l-36.662-20
	c-3.098-1.689-6.857-1.621-9.894,0.18C271.86,3.202,270,6.47,270,9.999v20c0,18.748-15.252,34-34,34s-34-15.252-34-34v-20
	c0-3.529-1.86-6.797-4.896-8.599c-3.034-1.801-6.795-1.869-9.894-0.18l-36.663,20c-3.414,1.863-5.439,5.537-5.19,9.418l2.428,37.894
	c2.326,36.313-16.757,71.134-48.616,88.711c-3.837,2.117-5.849,6.485-4.963,10.777C111.321,250.966,120,335.964,120,420.654v41.346
	c0,5.523,4.478,10,10,10h212c5.522,0,10-4.477,10-10v-41.346c0-84.694,8.679-169.692,25.794-252.633
	C378.679,163.729,376.668,159.36,372.831,157.244z M236,83.999c12.875,0,24.71-4.533,34-12.082v24.082c0,18.748-15.252,34-34,34
	s-34-15.252-34-34V71.918C211.289,79.467,223.124,83.999,236,83.999z M332,420.654v31.346H140v-31.346
	c0-83.671-8.338-167.64-24.787-249.698c34.751-22.266,55.191-62.179,52.531-103.702l-2.02-31.53L182,26.846v69.154
	c0,29.776,24.225,54,54,54s54-24.224,54-54V26.846l16.274,8.878l-2.02,31.53c-2.66,41.522,17.781,81.436,52.532,103.702
	C340.338,253.009,332,336.978,332,420.654z"/>
<g>
</g>
<g>
</g>
<g>
</g>
<g>
</g>
<g>
</g>
<g>
</g>
<g>
</g>
<g>
</g>
<g>
</g>
<g>
</g>
<g>
</g>
<g>
</g>
<g>
</g>
<g>
</g>
<g>
</g>
</svg>
