<?xml version="1.0" encoding="iso-8859-1"?>
<!-- Generator: Adobe Illustrator 18.0.0, SVG Export Plug-In . SVG Version: 6.00 Build 0)  -->
<!DOCTYPE svg PUBLIC "-//W3C//DTD SVG 1.1//EN" "http://www.w3.org/Graphics/SVG/1.1/DTD/svg11.dtd">
<svg version="1.1" id="Capa_1" xmlns="http://www.w3.org/2000/svg" xmlns:xlink="http://www.w3.org/1999/xlink" x="0px" y="0px"
	 viewBox="0 0 445.978 445.978" style="enable-background:new 0 0 445.978 445.978;" xml:space="preserve">
<path d="M441.52,211.951L406.249,37.067c-0.575-2.852-2.364-5.312-4.9-6.739L349.715,1.284c-3.097-1.741-6.884-1.709-9.951,0.083
	c-0.24,0.141-0.46,0.306-0.686,0.464l-0.012-0.017C304.888,25.808,264.749,38.49,222.989,38.49S141.09,25.808,106.911,1.815
	L106.9,1.832c-0.226-0.158-0.445-0.324-0.686-0.464c-3.066-1.793-6.855-1.825-9.951-0.083L44.629,30.328
	c-2.536,1.427-4.325,3.887-4.9,6.739L4.459,211.951c-2.483,12.313-3.17,24.898-2.041,37.408l16.925,187.519
	c0.465,5.154,4.785,9.101,9.959,9.101h387.375c5.174,0,9.494-3.947,9.959-9.101l16.925-187.519
	C444.69,236.849,444.003,224.264,441.52,211.951z M272.61,188.448c1.606-46.401,24.79-89.182,62.203-115.977v15.786
	C334.813,132.105,309.44,170.133,272.61,188.448z M334.813,28.278v20.277c-50.911,30.46-82.293,85.496-82.293,145.058
	c0,0.836,0.026,1.661,0.038,2.492c-9.423,2.586-19.336,3.976-29.568,3.976c-10.235,0-20.151-1.39-29.576-3.978
	c0.012-0.831,0.038-1.654,0.038-2.49c0-59.56-31.379-114.594-82.286-145.049V28.278c33.901,19.812,72.197,30.212,111.824,30.212
	C262.616,58.49,300.911,48.091,334.813,28.278z M111.166,72.48c37.406,26.791,60.587,69.567,62.195,115.964
	c-36.826-18.317-62.195-56.342-62.195-100.187V72.48z M38.44,425.978l-1.434-15.891h371.967l-1.434,15.891H38.44z M423.642,247.561
	l-12.864,142.526H35.201L22.337,247.561c-0.955-10.585-0.374-21.236,1.728-31.656L58.428,45.513l32.737-18.415v61.159
	c0,72.688,59.136,131.824,131.824,131.824c72.688,0,131.823-59.136,131.823-131.824V27.098l32.737,18.415l34.364,170.392
	C424.016,226.324,424.597,236.975,423.642,247.561z"/>
<g>
</g>
<g>
</g>
<g>
</g>
<g>
</g>
<g>
</g>
<g>
</g>
<g>
</g>
<g>
</g>
<g>
</g>
<g>
</g>
<g>
</g>
<g>
</g>
<g>
</g>
<g>
</g>
<g>
</g>
</svg>
