<?xml version="1.0" encoding="iso-8859-1"?>
<!-- Generator: Adobe Illustrator 18.0.0, SVG Export Plug-In . SVG Version: 6.00 Build 0)  -->
<!DOCTYPE svg PUBLIC "-//W3C//DTD SVG 1.1//EN" "http://www.w3.org/Graphics/SVG/1.1/DTD/svg11.dtd">
<svg version="1.1" id="Capa_1" xmlns="http://www.w3.org/2000/svg" xmlns:xlink="http://www.w3.org/1999/xlink" x="0px" y="0px"
	 viewBox="0 0 459.478 459.478" style="enable-background:new 0 0 459.478 459.478;" xml:space="preserve">
<path d="M399.47,77.278l-36.409-45.707V10c0-5.523-4.477-10-10-10s-10,4.477-10,10v18.151H116.417V19c0-5.523-4.477-10-10-10
	s-10,4.477-10,10v12.295L60.008,77.278c-2.386,3.005-2.842,7.111-1.173,10.566c1.668,3.456,5.167,5.651,9.005,5.651h28.577v346.982
	c0,5.523,4.477,10,10,10s10-4.477,10-10v-27.92h226.644v36.919c0,5.523,4.477,10,10,10s10-4.477,10-10V93.496h28.577
	c3.837,0,7.336-2.196,9.005-5.651S401.855,80.284,399.47,77.278z M343.061,48.151v25.345H116.417V48.151H343.061z M88.547,73.496
	l7.87-9.913v9.913H88.547z M116.417,230.355h226.644v71.102H116.417V230.355z M116.417,210.355v-71.102h226.644v71.102H116.417z
	 M116.417,392.559v-71.102h226.644v71.102H116.417z M343.061,119.253H116.417V93.496h226.644V119.253z M363.061,73.496v-9.913
	l7.87,9.913H363.061z"/>
<g>
</g>
<g>
</g>
<g>
</g>
<g>
</g>
<g>
</g>
<g>
</g>
<g>
</g>
<g>
</g>
<g>
</g>
<g>
</g>
<g>
</g>
<g>
</g>
<g>
</g>
<g>
</g>
<g>
</g>
</svg>
