<?xml version="1.0" encoding="iso-8859-1"?>
<!-- Generator: Adobe Illustrator 18.0.0, SVG Export Plug-In . SVG Version: 6.00 Build 0)  -->
<!DOCTYPE svg PUBLIC "-//W3C//DTD SVG 1.1//EN" "http://www.w3.org/Graphics/SVG/1.1/DTD/svg11.dtd">
<svg version="1.1" id="Capa_1" xmlns="http://www.w3.org/2000/svg" xmlns:xlink="http://www.w3.org/1999/xlink" x="0px" y="0px"
	 viewBox="0 0 460.978 460.978" style="enable-background:new 0 0 460.978 460.978;" xml:space="preserve">
<path d="M325.711,444.253c-22.089-24.309-52.715-39.209-85.226-41.758v-234.39c41.818-4.962,74.362-40.615,74.362-83.746
	C314.847,37.843,277.005,0,230.489,0s-84.358,37.843-84.358,84.359c0,43.129,32.54,78.779,74.354,83.745v234.392
	c-32.508,2.551-63.131,17.45-85.218,41.758c-2.661,2.929-3.345,7.152-1.743,10.771s5.187,5.953,9.145,5.953h175.641
	c3.958,0,7.543-2.334,9.145-5.953C329.055,451.405,328.372,447.182,325.711,444.253z M248.926,43.555
	c4.01,11.638,6.186,25.823,6.186,40.803c0,39.287-14.585,64.359-24.626,64.359c-10.038,0-24.618-25.072-24.618-64.359
	c0-14.98,2.176-29.166,6.185-40.803c6.006,0.742,12.175,1.126,18.433,1.126C236.75,44.681,242.922,44.297,248.926,43.555z
	 M294.847,84.359c0,22.691-11.814,42.661-29.604,54.125c6.221-14.446,9.868-33.16,9.868-54.125c0-16.063-2.257-31.524-6.437-44.738
	c2.075-0.587,4.107-1.222,6.088-1.906C287.119,49.449,294.847,66.013,294.847,84.359z M250.389,23.164
	c-6.4,1.006-13.079,1.518-19.903,1.518c-6.816,0-13.49-0.512-19.896-1.518C216.861,21.119,223.545,20,230.489,20
	C237.433,20,244.118,21.119,250.389,23.164z M166.131,84.359c0-18.345,7.728-34.908,20.083-46.643
	c1.981,0.684,4.014,1.318,6.09,1.906c-4.179,13.212-6.436,28.673-6.436,44.737c0,20.965,3.647,39.68,9.867,54.125
	C177.945,127.02,166.131,107.05,166.131,84.359z M169.324,440.978c17.888-12.172,39.208-18.876,61.165-18.876
	s43.276,6.705,61.165,18.876H169.324z"/>
<g>
</g>
<g>
</g>
<g>
</g>
<g>
</g>
<g>
</g>
<g>
</g>
<g>
</g>
<g>
</g>
<g>
</g>
<g>
</g>
<g>
</g>
<g>
</g>
<g>
</g>
<g>
</g>
<g>
</g>
</svg>
