<?xml version="1.0" encoding="iso-8859-1"?>
<!-- Generator: Adobe Illustrator 18.0.0, SVG Export Plug-In . SVG Version: 6.00 Build 0)  -->
<!DOCTYPE svg PUBLIC "-//W3C//DTD SVG 1.1//EN" "http://www.w3.org/Graphics/SVG/1.1/DTD/svg11.dtd">
<svg version="1.1" id="Capa_1" xmlns="http://www.w3.org/2000/svg" xmlns:xlink="http://www.w3.org/1999/xlink" x="0px" y="0px"
	 viewBox="0 0 463.076 463.076" style="enable-background:new 0 0 463.076 463.076;" xml:space="preserve">
<path d="M462.8,292.952l-30.589-127.494c-1.079-4.497-5.1-7.667-9.724-7.667H40.589c-4.624,0-8.645,3.17-9.724,7.667L0.276,292.952
	c-0.714,2.978-0.025,6.12,1.872,8.524c1.896,2.405,4.79,3.809,7.853,3.809h59.509c4.624,0,8.645-3.17,9.724-7.667l9.676-40.331
	h285.256l9.676,40.331c1.079,4.497,5.1,7.667,9.724,7.667h59.51c3.063,0,5.957-1.403,7.853-3.809
	C462.825,299.071,463.514,295.93,462.8,292.952z M414.602,177.791l5.219,21.752H394.78c-4.23,0-8.003,2.662-9.421,6.647
	l-11.065,31.097H88.782l-11.065-31.097c-1.418-3.985-5.191-6.647-9.421-6.647h-25.04l5.219-21.752H414.602z M61.625,285.285H22.683
	l15.773-65.742H61.24l9.651,27.123L61.625,285.285z M401.451,285.285l-9.266-38.619l9.651-27.123h22.784l15.773,65.742H401.451z"/>
<g>
</g>
<g>
</g>
<g>
</g>
<g>
</g>
<g>
</g>
<g>
</g>
<g>
</g>
<g>
</g>
<g>
</g>
<g>
</g>
<g>
</g>
<g>
</g>
<g>
</g>
<g>
</g>
<g>
</g>
</svg>
