<?xml version="1.0" encoding="iso-8859-1"?>
<!-- Generator: Adobe Illustrator 18.0.0, SVG Export Plug-In . SVG Version: 6.00 Build 0)  -->
<!DOCTYPE svg PUBLIC "-//W3C//DTD SVG 1.1//EN" "http://www.w3.org/Graphics/SVG/1.1/DTD/svg11.dtd">
<svg version="1.1" id="Capa_1" xmlns="http://www.w3.org/2000/svg" xmlns:xlink="http://www.w3.org/1999/xlink" x="0px" y="0px"
	 viewBox="0 0 476.719 476.719" style="enable-background:new 0 0 476.719 476.719;" xml:space="preserve">
<path d="M359.86,238.436c0-44.777-24.351-83.969-60.502-105.043v-6.034c0-18.637-15.162-33.799-33.799-33.799h-2.581V10
	c0-5.523-4.477-10-10-10h-29.24c-5.523,0-10,4.477-10,10v83.56h-2.581c-18.637,0-33.799,15.162-33.799,33.799v6.037
	c-36.149,21.075-60.498,60.265-60.498,105.04s24.349,83.966,60.498,105.04v5.884c0,18.637,15.162,33.799,33.799,33.799h2.581v83.56
	c0,5.523,4.477,10,10,10h29.24c5.523,0,10-4.477,10-10v-83.56h2.581c18.637,0,33.799-15.162,33.799-33.799v-5.881
	C335.509,322.406,359.86,283.213,359.86,238.436z M233.737,20h9.24v73.56h-9.24V20z M211.156,113.56h54.402
	c6.413,0,11.802,4.403,13.343,10.341c-12.686-4.504-26.331-6.964-40.541-6.964c-14.213,0-27.859,2.461-40.547,6.966
	C199.353,117.964,204.743,113.56,211.156,113.56z M280.277,238.436c0,59.815-22.091,101.5-41.917,101.5s-41.917-41.685-41.917-101.5
	s22.091-101.5,41.917-101.5S280.277,178.621,280.277,238.436z M136.86,238.436c0-41.575,25.129-77.385,60.993-93.057
	c-1.847,3.098-3.609,6.427-5.27,9.994c-10.408,22.354-16.141,51.853-16.141,83.063s5.732,60.709,16.141,83.063
	c1.661,3.567,3.422,6.895,5.27,9.994C161.989,315.822,136.86,280.011,136.86,238.436z M242.977,456.719h-9.24v-73.56h9.24V456.719z
	 M265.558,363.16h-54.402c-6.353,0-11.702-4.321-13.3-10.174c12.675,4.495,26.307,6.951,40.503,6.951
	c14.194,0,27.824-2.455,40.498-6.949C277.259,358.84,271.91,363.16,265.558,363.16z M278.867,331.493
	c1.847-3.098,3.609-6.426,5.27-9.993c10.408-22.354,16.141-51.853,16.141-83.063s-5.732-60.71-16.141-83.063
	c-1.661-3.567-3.423-6.895-5.27-9.993c35.864,15.672,60.993,51.482,60.993,93.057S314.731,315.821,278.867,331.493z"/>
<g>
</g>
<g>
</g>
<g>
</g>
<g>
</g>
<g>
</g>
<g>
</g>
<g>
</g>
<g>
</g>
<g>
</g>
<g>
</g>
<g>
</g>
<g>
</g>
<g>
</g>
<g>
</g>
<g>
</g>
</svg>
