<?xml version="1.0" encoding="iso-8859-1"?>
<!-- Generator: Adobe Illustrator 18.0.0, SVG Export Plug-In . SVG Version: 6.00 Build 0)  -->
<!DOCTYPE svg PUBLIC "-//W3C//DTD SVG 1.1//EN" "http://www.w3.org/Graphics/SVG/1.1/DTD/svg11.dtd">
<svg version="1.1" id="Capa_1" xmlns="http://www.w3.org/2000/svg" xmlns:xlink="http://www.w3.org/1999/xlink" x="0px" y="0px"
	 viewBox="0 0 457.7 457.7" style="enable-background:new 0 0 457.7 457.7;" xml:space="preserve">
<path d="M456.748,381.742L359.67,175.261l26.059-87.825c4.793-16.151-2.146-33.146-16.873-41.327
	c-4.541-2.521-10.254-1.148-13.154,3.161l-39.395,58.571H166.505c-12.961,0-23.505,10.544-23.505,23.505
	s10.544,23.505,23.505,23.505h123.257L371.233,328H10c-3.23,0-6.263,1.561-8.14,4.191s-2.367,6.004-1.317,9.06l16.5,48
	C18.432,393.289,22.23,396,26.5,396h7.95v6.85c0,5.523,4.478,10,10,10s10-4.477,10-10V396H410v6.85c0,5.523,4.478,10,10,10
	s10-4.477,10-10V396h17.7c3.424,0,6.609-1.751,8.443-4.642S458.206,384.84,456.748,381.742z M365.618,70.362
	c1.69,3.431,2.101,7.464,0.938,11.384l-19.674,66.306l-13.788-29.334L365.618,70.362z M166.505,134.85
	c-1.933,0-3.505-1.572-3.505-3.505s1.572-3.505,3.505-3.505h110.549l3.298,7.01H166.505z M33.637,376l-9.625-28h356.632l13.171,28
	H33.637z M415.917,376l-116.76-248.16h16.126L431.942,376H415.917z"/>
<g>
</g>
<g>
</g>
<g>
</g>
<g>
</g>
<g>
</g>
<g>
</g>
<g>
</g>
<g>
</g>
<g>
</g>
<g>
</g>
<g>
</g>
<g>
</g>
<g>
</g>
<g>
</g>
<g>
</g>
</svg>
